<!DOCTYPE svg PUBLIC "-//W3C//DTD SVG 1.1//EN" "http://www.w3.org/Graphics/SVG/1.1/DTD/svg11.dtd">
<!-- Uploaded to: SVG Repo, www.svgrepo.com, Transformed by: SVG Repo Mixer Tools -->
<svg width="256px" height="256px" viewBox="0 0 512.00 512.00" xmlns="http://www.w3.org/2000/svg" xmlns:xlink="http://www.w3.org/1999/xlink" aria-hidden="true" role="img" class="iconify iconify--fxemoji" preserveAspectRatio="xMidYMid meet" fill="#3F533B" stroke="#3F533B">
<g id="SVGRepo_bgCarrier" stroke-width="0"/>
<g id="SVGRepo_tracerCarrier" stroke-linecap="round" stroke-linejoin="round" stroke="#CCCCCC" stroke-width="5.12"/>
<g id="SVGRepo_iconCarrier">
<path fill="#3F533B" d="M113.804 437.298h375.131c14.129 0 22.95-15.305 15.868-27.531L332.163 66.742c-8.812-15.212-30.776-15.212-39.588 0l-183.668 362.06c-2.185 3.773.537 8.496 4.897 8.496z"/>
<path fill="#3F533B" d="M13.354 437.298h388.284L224.104 185.565c-16.226-18.894-45.471-18.894-61.697 0L3.428 415.69c-7.286 8.484-1.258 21.608 9.926 21.608z"/>
<path fill="#3F533B" d="M115.263 289.355c26.748 0 19.106-13.161 47.23-13.161c20.792 0 22.354 16.205 22.354 28.412c0 15.965 12.942 28.907 28.907 28.907s28.907-12.941 28.907-28.907c0-45.412 11.186-31.269 28.907-31.269c5.641 0 10.782 1.664 14.787.496l-62.247-88.262l-.005-.006c-6.085-7.085-14-11.514-22.373-13.285c-13.956-2.952-29.182 1.476-39.324 13.285L93.121 285.858c3.986 1.866 10.714 3.497 22.142 3.497z"/>
<path fill="#3F533B" d="M332.163 66.742c-8.812-15.211-30.776-15.211-39.588 0L240.4 169.594c14.993.857 21.326 12.194 20.772 21.229c-.437 7.122 3.632 14.056 9.892 17.479c16.774 9.172 33.717-2.731 33.717-18.59c0-32.068 7.402-40.975 19.319-41.97c.799.067 1.564.215 2.388.215c20.034 0 28.894 16.877 27.329 27.888c-.956 6.724 2.704 13.313 8.272 17.204c12.537 8.761 25.295 7.048 33.731.174L332.163 66.742z"/>
</g>
</svg>