<?xml version="1.0" standalone="no"?>
<!DOCTYPE svg PUBLIC "-//W3C//DTD SVG 20010904//EN"
 "http://www.w3.org/TR/2001/REC-SVG-20010904/DTD/svg10.dtd">
<svg version="1.0" xmlns="http://www.w3.org/2000/svg"
 width="2896.000000pt" height="812.000000pt" viewBox="0 0 2896.000000 812.000000"
 preserveAspectRatio="xMidYMid meet">

<g transform="translate(0.000000,812.000000) scale(0.100000,-0.100000)"
fill="#000000" stroke="none">
<path d="M9432 4058 l3 -4053 125 0 125 0 3 4053 2 4052 -130 0 -130 0 2
-4052z"/>
<path d="M21140 7714 c-14 -2 -65 -9 -115 -15 -222 -28 -483 -114 -680 -227
-529 -303 -843 -830 -915 -1536 -16 -151 -8 -512 14 -651 35 -221 96 -422 181
-603 55 -115 157 -280 213 -342 16 -19 45 -53 64 -74 87 -104 289 -256 433
-328 85 -43 188 -87 212 -91 10 -1 23 -5 28 -9 21 -13 154 -48 255 -67 241
-46 514 -51 790 -15 151 19 409 82 476 116 43 22 49 29 47 54 -1 16 -26 169
-54 340 l-52 312 -42 -19 c-209 -93 -649 -132 -892 -81 -436 93 -722 396 -823
872 -29 137 -42 362 -29 522 28 373 136 638 343 843 198 196 410 281 726 292
235 8 447 -25 623 -98 40 -16 76 -31 80 -32 7 -2 54 175 144 552 l30 124 -63
28 c-127 58 -349 110 -550 129 -102 9 -387 12 -444 4z"/>
<path d="M6581 7593 c-17 -137 -14 -278 8 -366 34 -130 56 -166 237 -371 246
-282 299 -359 357 -521 34 -97 64 -255 47 -255 -4 0 -30 37 -56 83 -142 247
-391 575 -560 738 -77 74 -108 89 -132 66 -19 -19 -9 -32 244 -308 135 -147
272 -336 375 -519 29 -52 57 -98 62 -101 5 -4 4 -10 -2 -13 -31 -19 -135 46
-190 119 -23 30 -41 57 -41 60 0 10 -221 317 -273 380 -96 115 -259 261 -278
249 -5 -3 -9 -1 -9 4 0 19 -101 35 -179 29 -69 -5 -219 -40 -281 -65 -24 -9
-24 -10 -5 -17 104 -38 221 -108 309 -186 92 -82 145 -144 306 -359 202 -269
256 -303 500 -320 204 -15 217 -18 229 -49 5 -14 33 -77 61 -140 109 -241 214
-616 254 -906 20 -147 40 -414 32 -422 -16 -16 -113 138 -136 217 -11 36 -26
133 -35 215 -19 184 -38 299 -71 430 -69 275 -179 363 -558 450 l-30 6 45 -53
c144 -171 203 -326 289 -748 78 -389 85 -402 300 -545 71 -47 146 -101 166
-120 l37 -35 -6 -143 c-16 -371 -98 -743 -244 -1112 -31 -77 -59 -144 -63
-149 -22 -24 -56 139 -46 217 4 29 34 133 67 232 71 211 134 452 144 547 11
99 -32 245 -86 294 -10 9 -19 23 -19 30 0 15 -160 178 -208 213 -18 12 -32 20
-32 17 0 -2 7 -38 17 -78 11 -51 16 -117 16 -223 -1 -180 -20 -294 -98 -602
-82 -323 -76 -386 51 -599 54 -92 104 -195 104 -216 0 -27 -252 -443 -290
-478 -3 -3 -23 -27 -44 -55 -101 -127 -396 -437 -506 -530 -94 -79 -250 -195
-264 -195 -15 0 3 79 31 133 17 34 57 81 117 136 111 103 416 411 416 421 0 3
14 22 31 41 16 18 44 62 61 96 54 109 50 283 -8 460 -47 141 -44 138 -65 59
-24 -83 -73 -192 -122 -269 -20 -31 -37 -59 -37 -62 -1 -5 -39 -50 -100 -119
-25 -28 -120 -125 -212 -214 -246 -241 -270 -287 -268 -527 1 -77 1 -165 0
-197 l0 -56 -102 -60 c-426 -248 -906 -397 -1348 -418 l-125 -6 38 36 c71 67
201 115 407 152 204 36 465 116 544 167 60 38 116 121 146 215 19 61 60 272
60 310 0 9 -22 -6 -57 -40 -32 -30 -85 -74 -118 -98 -33 -24 -63 -48 -67 -54
-4 -6 -8 -8 -8 -3 0 4 -24 -7 -54 -23 -67 -38 -220 -91 -380 -131 -374 -94
-421 -125 -581 -383 -26 -44 -62 -94 -78 -113 -27 -30 -34 -33 -87 -33 -57 0
-60 1 -92 43 -19 23 -64 89 -101 147 -67 105 -119 170 -136 170 -5 0 -11 6
-14 14 -8 19 -102 70 -177 94 -36 11 -137 39 -225 62 -199 52 -259 72 -360
122 -101 51 -192 115 -267 190 l-58 58 6 -48 c34 -286 114 -462 237 -520 106
-50 391 -129 561 -157 164 -26 311 -88 372 -156 l19 -22 -125 6 c-450 24 -918
171 -1358 428 l-92 53 0 196 c0 212 -9 270 -54 351 -14 25 -125 145 -249 270
-139 140 -242 253 -275 302 -67 97 -137 245 -159 332 l-16 66 -14 -38 c-96
-255 -107 -416 -39 -555 19 -40 47 -87 63 -103 15 -17 36 -43 45 -57 30 -46
258 -277 361 -366 54 -46 113 -107 132 -136 31 -47 73 -162 62 -172 -5 -5
-133 85 -232 164 -74 59 -348 332 -443 442 -31 36 -59 67 -62 70 -13 11 -130
170 -177 241 -63 93 -135 214 -175 293 l-30 59 49 96 c28 53 73 141 102 196
56 109 77 190 66 264 -3 25 -33 154 -66 286 -32 132 -66 285 -74 340 -21 140
-19 359 4 462 l18 82 -31 -25 c-65 -54 -181 -171 -218 -222 -53 -72 -88 -150
-98 -220 -15 -109 29 -310 145 -657 67 -200 76 -269 50 -374 -9 -39 -21 -71
-26 -71 -5 0 -9 1 -9 3 0 2 -22 57 -49 123 -153 377 -236 747 -256 1149 l-7
130 44 41 c43 41 71 61 205 148 124 81 182 163 214 304 6 26 26 129 45 229 59
313 120 492 221 648 22 33 51 73 66 89 15 16 27 32 27 37 0 9 -100 -13 -190
-42 -154 -50 -274 -139 -326 -241 -48 -96 -105 -369 -129 -623 -16 -164 -47
-256 -121 -357 -37 -50 -54 -60 -54 -30 0 68 35 390 55 506 54 320 166 680
286 918 33 65 25 63 241 78 251 17 291 44 509 332 227 300 379 442 555 513 30
12 57 24 59 27 7 6 -153 53 -233 69 -85 16 -188 7 -248 -21 -57 -28 -238 -199
-305 -290 -27 -36 -56 -74 -65 -85 -9 -11 -41 -58 -72 -105 -31 -47 -62 -91
-70 -99 -7 -8 -31 -42 -53 -77 -45 -70 -90 -114 -149 -144 -38 -20 -70 -26
-70 -14 0 13 78 147 157 268 111 170 193 274 336 425 157 166 204 228 191 249
-6 9 -15 17 -22 20 -14 4 -181 -152 -259 -243 -141 -166 -329 -433 -447 -636
-19 -33 -20 -33 -24 -10 -9 59 38 230 98 352 53 107 65 124 261 350 96 111
189 223 207 249 77 115 108 270 91 466 -14 175 -13 174 -70 64 -78 -150 -133
-220 -450 -571 -238 -263 -270 -302 -311 -387 -28 -58 -33 -80 -36 -163 -5
-117 3 -155 75 -375 l56 -172 -51 -108 c-164 -357 -288 -834 -309 -1189 -7
-129 -16 -146 -37 -74 -62 213 -48 369 79 868 63 246 67 296 30 406 -23 70
-97 208 -174 325 l-36 55 -6 -125 c-11 -220 -60 -444 -224 -1035 -44 -159 -27
-286 54 -413 22 -34 92 -115 155 -181 62 -65 122 -130 131 -144 13 -21 19 -65
26 -204 14 -280 47 -491 118 -755 37 -136 115 -361 143 -411 20 -35 36 -87 28
-87 -14 0 -116 122 -144 171 -98 176 -156 361 -206 661 -38 225 -75 314 -164
395 -61 56 -151 115 -160 106 -3 -4 -6 -1 -6 5 0 7 -5 12 -12 12 -6 0 -19 6
-27 13 -9 8 -47 31 -86 52 -49 27 -65 33 -55 19 8 -10 20 -22 25 -26 6 -4 6
-8 2 -8 -5 0 0 -15 11 -32 60 -99 126 -331 192 -678 82 -432 92 -476 118 -530
59 -122 194 -216 392 -274 123 -35 182 -56 207 -72 13 -8 37 -42 54 -77 144
-286 406 -650 608 -845 67 -65 286 -254 352 -305 13 -10 52 -37 86 -59 57 -38
84 -68 49 -55 -8 3 -32 9 -53 13 -58 10 -204 76 -275 124 -82 55 -100 73 -222
210 -111 125 -107 120 -225 261 -44 53 -98 111 -119 127 -105 84 -219 108
-445 97 l-139 -7 69 -42 c120 -73 325 -287 619 -647 122 -149 171 -200 221
-232 112 -70 232 -76 497 -22 96 19 186 35 198 35 13 0 49 -16 80 -35 171
-103 491 -244 708 -313 227 -72 526 -133 733 -148 48 -4 90 -11 93 -15 2 -5
-19 -15 -48 -23 -213 -61 -429 -40 -714 70 -303 117 -391 137 -516 116 -81
-14 -211 -72 -347 -155 l-85 -52 90 -7 c143 -11 358 -64 589 -147 542 -195
505 -183 585 -183 131 -1 227 49 400 207 52 48 119 106 149 128 51 39 56 41
141 45 113 6 142 -5 241 -86 45 -37 88 -71 96 -77 8 -5 35 -29 60 -53 120
-110 236 -165 353 -164 65 0 95 7 220 52 621 222 824 280 976 280 56 0 68 8
35 25 -11 6 -62 36 -113 67 -52 31 -130 72 -173 90 -73 30 -89 32 -185 32
-119 1 -157 -9 -350 -84 -69 -26 -159 -60 -200 -74 -211 -72 -433 -83 -608
-31 -29 9 -50 20 -48 24 3 4 45 11 93 15 121 9 321 40 450 71 97 23 144 35
293 79 194 58 488 188 703 312 32 19 67 34 78 34 11 0 102 -16 201 -36 280
-55 392 -47 512 35 40 28 178 183 276 311 19 25 37 47 40 50 3 3 48 55 100
115 137 160 305 323 392 382 l77 51 -133 7 c-241 13 -369 -21 -476 -126 -30
-30 -121 -133 -202 -229 -230 -274 -282 -322 -456 -409 -66 -34 -222 -78 -222
-64 1 5 37 33 82 63 115 77 186 136 426 355 51 47 203 226 288 340 98 130 207
301 286 445 l73 135 80 27 c44 14 118 39 165 53 124 40 207 83 270 142 93 86
124 163 170 428 55 313 118 599 159 718 11 31 18 57 16 57 -2 0 18 44 46 97
27 54 49 99 49 101 0 6 -174 -90 -242 -134 -92 -59 -143 -107 -177 -168 -40
-71 -56 -126 -91 -321 -69 -379 -140 -572 -270 -735 -54 -66 -100 -108 -87
-78 195 448 280 814 304 1301 l6 137 50 58 c27 31 62 68 77 82 15 14 53 54 85
90 171 193 200 321 130 575 -169 608 -215 830 -215 1045 l0 75 -65 -105 c-135
-217 -183 -344 -171 -452 3 -32 28 -145 55 -251 115 -444 136 -628 91 -803
-18 -69 -40 -118 -40 -88 0 51 -34 343 -50 434 -52 289 -152 608 -274 873 -20
43 -36 90 -36 104 0 14 20 85 44 157 65 194 78 251 80 351 2 192 -15 218 -443
686 -203 221 -321 380 -380 511 l-28 61 -12 -90z"/>
<path d="M10370 6558 c0 -634 5 -1175 10 -1273 16 -265 56 -487 121 -680 36
-107 126 -295 142 -295 5 0 7 -3 4 -7 -6 -5 30 -60 77 -121 45 -58 144 -154
210 -204 199 -150 451 -230 766 -244 363 -17 710 74 948 248 64 46 232 205
232 218 0 4 11 20 25 36 95 109 214 377 264 594 67 294 73 422 69 1715 l-3
1110 -392 3 -393 2 0 -1198 c0 -1281 -2 -1330 -51 -1517 -71 -271 -214 -440
-423 -500 -73 -21 -240 -24 -316 -6 -258 63 -417 284 -481 671 -10 56 -14 394
-18 1310 l-6 1235 -392 3 -393 2 0 -1102z"/>
<path d="M14120 5725 l0 -1935 361 0 361 0 -5 1148 c-3 631 -10 1240 -16 1353
-16 335 -16 364 -1 364 7 0 49 -90 100 -215 91 -227 196 -465 301 -690 76
-162 720 -1453 728 -1460 3 -3 61 -116 128 -252 l123 -248 415 0 415 0 0 1935
0 1935 -367 0 -366 0 6 -897 c4 -494 11 -1004 17 -1133 8 -191 33 -595 42
-685 2 -11 -2 -21 -6 -23 -10 -4 -26 33 -91 203 -66 172 -200 493 -279 670
-95 211 -334 687 -350 697 -6 4 -7 8 -3 8 4 0 -21 55 -56 123 -82 156 -192
369 -347 672 -67 132 -138 268 -157 303 l-34 62 -459 0 -460 0 0 -1935z"/>
<path d="M17912 5728 l3 -1933 390 0 390 0 0 1930 0 1930 -393 3 -392 2 2
-1932z"/>
<path d="M22880 5725 l0 -1935 1115 0 1115 0 0 355 0 355 -725 0 -725 0 0 465
0 465 650 0 650 0 0 355 0 355 -650 0 -650 0 0 405 0 405 690 0 690 0 0 355 0
355 -1080 0 -1080 0 0 -1935z"/>
<path d="M25840 5725 l0 -1935 367 0 366 0 -7 1012 c-6 931 -15 1378 -32 1726
-10 187 3 180 99 -64 76 -190 160 -384 236 -549 21 -44 55 -118 76 -165 22
-47 250 -507 508 -1022 l469 -938 414 0 414 0 0 1935 0 1935 -357 -2 -358 -3
-3 -755 c-4 -911 15 -1584 54 -1932 4 -37 3 -58 -4 -58 -5 0 -28 48 -51 108
-23 59 -46 115 -51 124 -6 10 -10 22 -10 27 0 15 -166 413 -252 606 -115 256
-226 477 -623 1245 -78 151 -173 336 -210 410 -37 74 -70 137 -74 140 -4 3
-15 24 -25 48 l-19 42 -464 0 -463 0 0 -1935z"/>
<path d="M3930 7123 c-366 -36 -643 -115 -965 -272 -709 -347 -1246 -1011
-1449 -1791 -70 -268 -96 -474 -96 -755 0 -470 91 -865 295 -1280 251 -511
619 -907 1099 -1185 167 -96 385 -192 536 -236 312 -91 493 -118 785 -118 156
0 254 5 335 17 419 63 789 204 1130 432 174 116 275 199 420 345 461 464 736
1049 811 1725 15 138 15 467 0 605 -49 436 -175 817 -391 1181 -50 85 -171
262 -190 279 -3 3 -23 28 -44 55 -114 144 -232 260 -461 452 -53 44 -247 169
-351 225 -410 222 -839 331 -1283 326 -80 0 -162 -3 -181 -5z m415 -83 c426
-40 803 -165 1157 -386 288 -180 498 -370 691 -626 669 -889 763 -2079 241
-3068 -156 -296 -371 -567 -604 -763 -47 -40 -91 -77 -97 -84 -42 -39 -318
-211 -428 -266 -162 -81 -219 -105 -370 -155 -514 -171 -1097 -171 -1608 -1
-271 91 -532 228 -763 401 -96 71 -269 221 -316 273 -229 255 -417 553 -541
855 -217 529 -269 1144 -146 1705 86 389 267 787 496 1087 35 46 71 94 80 108
10 14 27 34 38 46 11 11 45 47 76 80 69 72 181 173 274 245 39 29 72 56 75 59
3 3 29 21 58 39 30 19 59 39 66 45 14 13 19 16 175 100 449 242 962 351 1446
306z"/>
<path d="M3892 6795 c-33 -15 -66 -70 -57 -97 2 -7 6 -27 9 -45 4 -32 56 -93
79 -93 32 0 88 23 97 40 24 45 -2 55 -40 15 -31 -33 -53 -32 -84 6 -35 41 -36
106 -3 137 29 27 49 28 71 3 19 -21 56 -24 56 -5 0 16 -28 44 -43 44 -7 0 -21
2 -32 5 -11 3 -35 -2 -53 -10z"/>
<path d="M4080 6694 c0 -114 0 -115 23 -112 21 3 22 7 25 116 l3 112 -26 0
-25 0 0 -116z"/>
<path d="M4212 6776 c-39 -45 -48 -77 -33 -125 24 -82 96 -107 166 -59 51 34
68 97 43 152 -15 34 -46 53 -100 61 -42 6 -46 5 -76 -29z m111 -7 c31 -17 37
-28 37 -76 0 -33 -7 -50 -29 -75 -27 -30 -30 -31 -60 -18 -59 24 -74 95 -35
158 16 24 52 29 87 11z"/>
<path d="M4465 6778 c-2 -7 -11 -58 -20 -112 -13 -81 -14 -101 -3 -107 27 -18
38 -9 38 30 0 47 10 101 19 101 4 0 20 -36 36 -80 27 -74 32 -80 55 -78 24 3
26 8 39 110 19 142 -2 169 -28 37 -7 -33 -16 -59 -20 -59 -5 0 -19 28 -31 63
-13 34 -29 72 -37 85 -15 24 -41 29 -48 10z"/>
<path d="M3654 6760 c-17 -7 -23 -22 -33 -97 -6 -48 -14 -103 -17 -120 -5 -25
-3 -33 9 -33 9 0 17 13 21 34 7 35 12 39 73 51 29 6 34 3 44 -19 13 -27 25
-31 46 -18 9 6 -5 35 -48 102 -74 115 -69 110 -95 100z m42 -85 c14 -25 24
-48 21 -51 -2 -3 -21 -8 -42 -11 -33 -5 -37 -4 -32 13 3 10 8 36 12 57 3 20 8
37 10 37 2 0 16 -20 31 -45z"/>
<path d="M3467 6723 c-3 -5 1 -37 9 -72 23 -100 18 -103 -60 -33 -95 86 -103
77 -60 -67 36 -123 33 -116 46 -103 8 8 5 30 -11 82 -13 39 -20 74 -17 78 4 3
35 -22 69 -56 39 -39 71 -62 85 -62 12 0 22 3 22 8 0 4 -13 54 -29 110 -28
101 -43 133 -54 115z"/>
<path d="M4733 6610 c-65 -91 -79 -126 -32 -84 15 13 30 15 74 9 l55 -6 0 -39
c0 -29 4 -39 20 -43 24 -6 24 -9 2 143 -13 85 -21 116 -32 118 -9 1 -43 -36
-87 -98z m75 -34 c-3 -22 -5 -23 -31 -13 l-27 12 27 40 28 40 3 -27 c2 -16 2
-39 0 -52z"/>
<path d="M4973 6613 c-35 -80 -73 -177 -70 -179 2 -2 34 -17 72 -35 54 -24 70
-28 76 -17 6 9 -5 20 -39 37 -26 13 -49 25 -51 27 -1 1 12 42 30 89 27 72 30
88 18 96 -21 13 -23 12 -36 -18z"/>
<path d="M3032 6544 c-33 -15 -52 -29 -49 -37 40 -93 82 -185 90 -195 8 -10
20 -7 56 14 62 36 78 51 85 80 9 35 -10 98 -40 134 -32 37 -67 38 -142 4z
m118 -39 c13 -14 20 -25 15 -25 -5 0 -4 -5 3 -12 16 -16 15 -73 -1 -86 -6 -6
-23 -13 -37 -17 -23 -5 -28 0 -58 60 -17 36 -32 69 -32 74 0 11 40 29 66 30
11 1 31 -10 44 -24z"/>
<path d="M5216 6408 c-31 -56 -55 -102 -53 -103 18 -16 118 -65 132 -65 28 0
86 49 101 86 17 41 18 84 1 105 -12 15 -108 79 -120 79 -3 0 -30 -46 -61 -102z
m133 16 c26 -33 26 -47 0 -101 -19 -40 -24 -43 -60 -43 -30 0 -42 5 -54 24
-15 22 -14 27 17 85 38 69 63 78 97 35z"/>
<path d="M2824 6418 l-20 -9 23 -121 c12 -67 25 -123 28 -126 13 -13 36 24 31
49 -5 24 0 31 40 54 42 25 47 25 63 11 15 -14 20 -14 37 -2 10 8 17 16 14 19
-6 6 -172 121 -185 129 -5 3 -19 1 -31 -4z m82 -80 l36 -32 -24 -18 c-31 -23
-37 -23 -48 7 -31 82 -22 94 36 43z"/>
<path d="M5436 6278 c-61 -86 -64 -93 -48 -108 31 -29 126 -90 131 -84 4 3
-15 24 -41 46 -53 44 -56 52 -30 86 l17 22 51 -34 c47 -32 64 -36 64 -16 0 4
-22 22 -50 41 -27 19 -50 37 -50 40 0 3 9 14 20 24 18 17 21 16 68 -19 47 -34
66 -38 56 -11 -3 7 -32 34 -64 59 l-59 46 -65 -92z"/>
<path d="M3916 6289 c-293 -34 -603 -145 -833 -301 -470 -315 -785 -828 -868
-1409 -19 -138 -19 -408 1 -550 62 -448 272 -868 586 -1175 105 -102 228 -204
246 -204 6 0 12 -4 14 -9 2 -5 33 -27 70 -50 693 -422 1569 -365 2198 143 198
160 396 407 514 643 293 585 295 1259 6 1841 -303 610 -854 1000 -1512 1071
-110 12 -319 12 -422 0z m375 -59 c487 -48 907 -278 1249 -685 259 -308 410
-682 442 -1092 31 -396 -66 -810 -268 -1146 -183 -303 -497 -598 -794 -745
-52 -26 -98 -51 -101 -55 -3 -5 -10 -8 -15 -8 -5 0 -63 -17 -129 -39 -220 -71
-473 -101 -689 -81 -192 18 -388 67 -533 132 -34 15 -64 25 -67 22 -3 -4 -6
-1 -6 5 0 7 -5 12 -11 12 -7 0 -52 23 -102 51 -302 173 -598 480 -770 799
-165 306 -247 693 -218 1043 43 539 273 989 690 1354 367 321 850 479 1322
433z"/>
<path d="M4430 5905 c-52 -46 -100 -84 -105 -84 -6 -1 -40 28 -75 64 -35 36
-70 65 -76 65 -10 0 -93 -87 -175 -184 -13 -15 -43 -49 -66 -75 -24 -25 -69
-76 -100 -113 l-58 -68 -322 0 -323 0 0 -1277 0 -1278 124 -127 c152 -157 177
-169 262 -127 34 16 46 29 60 64 9 24 14 51 11 58 -3 8 -29 46 -57 85 l-52 71
7 106 c4 58 13 111 19 118 28 28 82 116 103 167 30 73 29 108 -6 161 -75 114
-111 183 -111 210 0 34 19 38 45 9 58 -64 364 -224 500 -262 107 -29 367 -32
491 -5 155 34 295 99 454 211 97 68 378 346 403 398 39 83 46 140 37 299 -5
83 -11 152 -12 153 -2 1 -28 9 -58 20 -74 24 -111 51 -150 107 -31 46 -32 49
-28 141 4 99 6 105 88 212 24 31 30 49 30 86 0 58 -16 80 -110 151 -71 54
-138 144 -170 229 -9 23 -93 116 -244 268 -127 127 -233 232 -236 231 -3 0
-48 -38 -100 -84z m122 -29 c10 -7 85 -78 169 -157 83 -79 155 -146 160 -147
16 -6 96 -126 108 -162 6 -19 21 -52 34 -73 25 -41 174 -176 195 -177 7 0 12
-14 12 -38 0 -29 -9 -48 -41 -87 -69 -83 -82 -123 -77 -234 4 -77 10 -106 31
-147 39 -77 126 -144 187 -144 11 0 20 -1 20 -2 1 -2 5 -63 9 -137 14 -204 0
-233 -223 -457 -166 -166 -249 -230 -371 -289 -213 -103 -501 -132 -719 -73
-100 27 -354 154 -456 228 -41 30 -76 58 -78 62 -3 7 -31 -13 -63 -46 -26 -27
-25 -101 2 -146 12 -19 43 -63 70 -97 32 -41 49 -72 49 -90 0 -34 -41 -125
-78 -173 -63 -82 -88 -168 -77 -258 9 -72 24 -108 74 -178 33 -46 38 -59 29
-73 -16 -26 -70 -43 -99 -32 -13 5 -70 56 -127 114 l-102 106 2 1238 3 1238
306 5 305 5 47 55 c26 30 62 71 80 90 19 19 83 91 143 159 l109 124 66 -72
c36 -39 69 -71 74 -71 11 0 102 69 151 114 43 39 51 42 76 22z"/>
<path d="M3770 5260 c0 -30 1 -30 55 -30 l55 0 0 -130 0 -130 -260 0 -260 0 0
-25 0 -25 100 0 100 0 0 -370 0 -370 -27 -17 c-17 -12 -52 -19 -100 -21 -69
-4 -73 -5 -73 -28 l0 -24 243 2 c238 3 242 3 245 24 3 20 -2 22 -79 26 -74 4
-85 8 -106 32 l-23 27 0 335 0 335 107 -73 c59 -40 114 -79 121 -85 11 -10 11
-28 1 -95 -24 -163 4 -363 69 -497 31 -64 128 -165 180 -186 72 -31 166 -14
240 41 l34 26 27 -26 c47 -45 51 -37 51 88 0 112 1 116 28 146 l28 30 112 -80
c89 -63 120 -80 147 -80 l35 0 2 396 3 397 28 21 c22 16 47 22 108 25 76 3 79
4 79 27 l0 24 -240 0 -240 0 0 106 c0 58 5 114 10 125 7 11 26 21 50 25 36 6
40 10 40 35 l0 29 -130 0 -130 0 0 -30 c0 -27 3 -30 30 -30 37 0 75 -37 84
-81 3 -18 6 -142 6 -276 0 -229 -1 -245 -17 -240 -10 2 -102 62 -205 131
l-188 127 0 43 c0 40 3 45 34 60 79 37 177 5 233 -77 29 -43 52 -102 67 -169
4 -16 11 -28 16 -28 6 0 10 62 10 160 0 175 -5 189 -49 125 -13 -19 -27 -35
-32 -35 -5 0 -21 13 -35 29 -45 51 -154 78 -224 56 -19 -6 -20 -1 -20 84 l0
91 50 0 c49 0 50 1 50 30 l0 30 -220 0 -220 0 0 -30z m957 -366 l28 -21 3
-202 c1 -118 -1 -201 -7 -201 -5 0 -50 27 -100 61 l-91 61 0 165 0 165 70 -4
c50 -3 77 -9 97 -24z m-422 -495 c169 -121 208 -159 157 -155 -11 1 -18 -9
-22 -28 -7 -38 -50 -54 -143 -55 -88 -1 -119 17 -154 88 -23 46 -27 70 -31
168 -3 62 -1 113 2 113 4 0 90 -59 191 -131z m80 -328 c-53 -105 -176 -141
-255 -74 -31 26 -66 81 -57 90 3 2 32 -1 66 -8 69 -13 145 -6 211 21 63 25 63
25 35 -29z"/>
<path d="M2596 6237 l-49 -43 34 -40 c19 -21 53 -59 76 -84 l42 -45 23 21 c13
12 33 26 44 32 49 25 36 134 -20 177 -50 38 -91 34 -150 -18z m129 -16 c3 -10
14 -26 25 -36 11 -10 20 -28 20 -40 0 -26 -56 -83 -68 -69 -5 5 -29 34 -55 65
l-46 55 22 22 c28 29 93 31 102 3z"/>
<path d="M5623 6120 l-82 -85 58 -58 c49 -49 60 -55 70 -43 10 12 5 23 -29 60
l-41 44 67 72 c56 59 65 73 53 83 -12 11 -28 -2 -96 -73z"/>
<path d="M2490 6135 c-10 -12 -2 -26 49 -83 79 -90 89 -98 103 -84 8 8 -8 34
-62 97 -40 47 -73 85 -75 85 -1 0 -8 -7 -15 -15z"/>
<path d="M2364 6014 c-38 -40 -43 -71 -15 -105 l19 -24 49 18 c26 11 60 21 76
24 24 5 27 2 27 -22 0 -33 -24 -54 -61 -55 -27 0 -54 -22 -42 -33 3 -4 23 -7
43 -7 43 0 90 37 90 70 0 11 5 20 10 20 18 0 10 23 -17 52 -31 32 -58 35 -87
10 -34 -29 -72 -42 -85 -29 -6 6 -11 16 -11 22 0 16 33 45 52 45 9 0 21 7 29
16 10 13 10 17 -2 25 -25 15 -41 10 -75 -27z"/>
<path d="M5874 5921 c-43 -26 -76 -75 -77 -115 -2 -62 59 -118 111 -102 29 10
17 49 -13 42 -12 -3 -31 2 -44 10 -18 13 -21 24 -19 56 4 50 37 79 92 81 43 1
67 -24 63 -67 -2 -33 14 -44 33 -21 17 21 6 54 -33 98 -39 42 -66 46 -113 18z"/>
<path d="M2214 5823 c-27 -30 -68 -93 -63 -97 2 -1 43 -33 90 -69 66 -51 88
-63 93 -52 3 9 -8 24 -29 41 -19 14 -35 31 -35 37 0 21 37 36 91 37 37 0 61 5
69 14 9 12 5 16 -26 22 -21 4 -50 2 -65 -3 -27 -10 -27 -10 -21 30 4 31 1 43
-13 54 -29 21 -64 15 -91 -14z m77 -29 c10 -12 10 -19 1 -32 -7 -10 -20 -29
-30 -44 l-17 -27 -27 26 -27 26 27 33 c29 37 52 43 73 18z"/>
<path d="M5995 5689 c-44 -33 -81 -63 -83 -67 -4 -14 88 -132 103 -132 14 0
14 3 1 28 -8 15 -24 40 -35 57 l-20 30 26 27 c15 16 29 28 33 28 3 0 19 -22
35 -50 17 -27 33 -50 38 -50 11 0 9 7 -18 60 -30 59 -30 57 -5 70 17 9 24 4
52 -40 35 -52 45 -59 54 -35 6 16 -74 135 -91 134 -5 0 -46 -27 -90 -60z"/>
<path d="M2078 5625 c-16 -25 -28 -48 -28 -51 0 -3 -9 -14 -20 -26 -11 -12
-20 -25 -20 -29 0 -4 35 -28 78 -52 42 -25 86 -52 97 -60 19 -15 22 -12 68 59
26 41 45 80 41 85 -9 16 -28 -5 -54 -61 -13 -27 -27 -50 -32 -50 -17 0 -68 31
-68 41 0 6 14 30 30 54 34 49 36 55 16 55 -8 0 -29 -23 -46 -51 l-33 -50 -21
20 c-16 17 -18 25 -10 39 5 9 20 33 32 53 18 29 19 39 9 53 -11 14 -15 11 -39
-29z"/>
<path d="M6125 5490 c-49 -27 -91 -56 -93 -64 -6 -26 29 -19 85 19 29 19 55
35 58 35 3 0 -13 -36 -35 -80 -39 -77 -48 -114 -32 -123 12 -8 192 104 192
119 0 21 -14 17 -76 -17 -30 -17 -57 -29 -60 -26 -3 3 4 23 16 46 11 23 17 41
13 41 -5 0 -3 4 2 8 33 23 53 94 26 91 -3 0 -46 -22 -96 -49z"/>
<path d="M1978 5440 c-3 -9 20 -41 60 -83 35 -37 62 -70 59 -73 -6 -6 -121 10
-160 22 -12 4 -20 -2 -26 -18 -8 -23 -7 -23 103 -40 61 -10 114 -17 117 -18 4
0 9 11 11 25 4 21 -9 41 -77 112 -57 61 -83 83 -87 73z"/>
<path d="M6334 5302 c-6 -4 -10 -20 -10 -37 1 -27 -4 -31 -81 -64 -67 -29 -83
-39 -83 -57 0 -21 2 -21 88 12 48 18 92 33 98 34 6 0 17 -13 24 -30 12 -29 40
-43 36 -17 -5 31 -52 147 -59 147 -4 0 -5 5 -2 10 7 12 4 12 -11 2z"/>
<path d="M1875 5199 c-4 -11 -5 -22 -3 -25 3 -2 49 -22 104 -44 92 -38 100
-39 111 -23 17 22 11 27 -67 57 -36 13 -82 31 -102 40 -35 15 -37 15 -43 -5z"/>
<path d="M1830 5080 c0 -11 13 -17 93 -46 55 -20 59 -30 15 -39 -120 -23 -140
-30 -149 -48 -6 -10 -9 -21 -6 -23 6 -6 200 -64 215 -64 25 0 12 38 -15 44
-81 20 -103 28 -99 35 3 5 41 19 85 31 61 18 81 28 85 44 3 11 3 22 1 24 -5 6
-195 51 -212 52 -7 0 -13 -5 -13 -10z"/>
<path d="M6311 5036 c-112 -39 -133 -61 -47 -51 55 7 56 7 56 -18 0 -14 -8
-32 -18 -39 -33 -24 -53 -63 -44 -88 8 -22 9 -21 39 16 16 22 32 45 34 52 3 8
13 4 31 -13 34 -31 48 -31 78 0 24 25 24 26 9 98 -10 48 -19 72 -29 74 -8 1
-58 -13 -109 -31z m105 -30 c3 -13 4 -38 2 -57 -2 -26 -8 -35 -26 -37 -14 -2
-24 3 -28 15 -3 10 -10 26 -15 35 -15 28 -11 44 14 56 34 17 46 14 53 -12z"/>
<path d="M1776 4833 c-3 -4 -6 -14 -6 -23 0 -13 12 -18 55 -23 30 -3 70 -11
90 -18 31 -11 35 -17 35 -47 0 -18 -6 -40 -14 -48 -19 -18 -72 -18 -126 1 -55
19 -60 19 -60 -4 0 -16 9 -21 48 -26 26 -3 57 -10 70 -16 13 -5 31 -9 41 -9
24 0 60 32 64 58 2 12 6 25 10 29 12 11 -5 77 -22 90 -9 7 -32 13 -51 13 -19
0 -56 7 -82 14 -25 8 -49 12 -52 9z"/>
<path d="M6364 4803 c-51 -10 -94 -105 -73 -160 25 -67 148 -84 195 -27 81 99
7 212 -122 187z m74 -39 c25 -7 52 -51 52 -83 0 -31 -38 -51 -97 -51 -49 0
-54 2 -69 31 -22 44 -12 74 33 92 43 18 50 19 81 11z"/>
<path d="M1900 3687 c-95 -32 -95 -32 -94 -65 1 -18 11 -52 22 -75 16 -34 28
-46 59 -56 55 -18 123 13 147 66 15 35 16 41 1 75 -8 21 -15 49 -15 63 0 31
-3 31 -120 -8z m103 -41 c8 -20 -3 -77 -17 -90 -14 -13 -30 -18 -78 -24 -35
-4 -39 -1 -54 31 -9 19 -14 42 -11 50 3 8 33 21 69 30 83 19 85 19 91 3z"/>
<path d="M6242 3678 c-29 -38 -31 -113 -4 -141 27 -26 71 -7 100 43 24 42 50
51 71 26 17 -20 -12 -76 -39 -76 -11 0 -20 -4 -20 -9 0 -5 -3 -16 -6 -25 -11
-29 33 -18 70 18 27 25 36 42 36 66 0 46 -34 90 -70 90 -25 0 -35 -9 -65 -56
-42 -65 -70 -71 -70 -14 0 28 4 35 24 40 13 3 28 15 32 28 7 19 5 22 -20 22
-16 0 -33 -6 -39 -12z"/>
<path d="M1970 3452 c-52 -25 -97 -47 -99 -48 -1 -2 16 -37 38 -78 28 -49 47
-73 55 -70 11 4 8 18 -12 65 -26 61 -25 71 14 83 17 5 24 -2 44 -44 13 -27 29
-50 37 -50 18 0 16 14 -7 52 -27 45 -25 66 5 74 31 8 28 12 57 -58 14 -35 28
-54 35 -50 13 9 -44 172 -61 171 -6 0 -54 -21 -106 -47z"/>
<path d="M6147 3435 c-15 -36 -27 -70 -27 -75 0 -14 203 -112 211 -102 8 9 59
150 59 163 0 27 -24 2 -47 -51 -27 -63 -32 -66 -76 -47 l-28 12 25 49 c23 46
26 66 7 66 -4 0 -18 -22 -31 -50 -23 -50 -40 -59 -70 -40 -13 8 -12 15 4 57
22 58 24 75 10 80 -5 2 -22 -26 -37 -62z"/>
<path d="M6082 3267 c-12 -13 -22 -30 -22 -38 0 -8 -12 -32 -26 -52 -14 -21
-24 -40 -22 -41 1 -1 28 -15 58 -30 30 -16 74 -40 96 -53 36 -20 43 -21 48 -8
3 10 -8 24 -34 41 -45 30 -47 35 -22 57 12 11 36 17 70 17 42 0 53 4 63 21 11
21 10 21 -49 17 l-60 -4 -6 36 c-4 26 -13 40 -31 48 -35 16 -38 15 -63 -11z
m58 -32 c10 -13 9 -23 -5 -56 -23 -49 -27 -52 -60 -39 l-26 10 27 50 c28 52
43 60 64 35z"/>
<path d="M2113 3162 c-51 -31 -94 -61 -96 -67 -3 -5 14 -38 36 -73 48 -76 70
-71 36 7 -12 30 -18 55 -13 60 5 4 39 29 76 54 46 32 65 52 62 62 -4 8 -7 15
-8 14 0 0 -43 -26 -93 -57z"/>
<path d="M5971 3088 c-7 -11 -9 -24 -4 -28 14 -14 181 -130 186 -130 3 0 7 9
10 20 4 16 -11 33 -76 82 -45 34 -87 65 -92 69 -6 5 -16 -1 -24 -13z"/>
<path d="M2223 2968 c-57 -17 -103 -36 -103 -43 0 -21 23 -34 50 -28 24 4 32
-1 53 -32 24 -35 24 -38 9 -65 -13 -23 -14 -32 -5 -41 15 -15 8 -24 85 96 61
94 64 102 50 123 -18 27 -15 27 -139 -10z m83 -34 c-9 -33 -41 -68 -55 -60 -6
4 -16 16 -21 27 -10 17 -6 22 32 39 24 10 45 19 47 19 2 1 0 -11 -3 -25z"/>
<path d="M5876 2944 c-5 -19 7 -50 50 -129 50 -89 60 -101 72 -89 12 13 12 18
-3 41 -17 25 -17 26 22 65 34 34 42 38 64 29 21 -7 28 -5 38 11 7 11 11 22 8
24 -2 2 -53 18 -113 34 -60 17 -114 32 -121 35 -6 2 -14 -8 -17 -21z m121 -54
c11 0 11 -6 -4 -30 -26 -45 -37 -40 -72 34 -2 5 11 6 29 3 18 -4 39 -7 47 -7z"/>
<path d="M2420 2715 c-72 -73 -82 -86 -70 -100 11 -14 16 -12 38 20 l26 36 36
-36 c60 -58 130 -45 130 25 0 35 -25 81 -74 137 -1 1 -40 -35 -86 -82z m115
-10 c25 -32 26 -36 10 -51 -12 -13 -23 -15 -47 -8 -47 14 -57 38 -28 69 13 14
27 25 31 25 4 0 20 -16 34 -35z"/>
<path d="M5711 2732 c-19 -9 -37 -24 -41 -32 -4 -8 -12 -25 -19 -38 -9 -18 -8
-27 5 -47 24 -36 47 -39 90 -10 48 32 97 31 102 -2 4 -28 -33 -65 -61 -61 -26
3 -50 -10 -42 -23 13 -21 70 -9 103 22 40 38 42 76 6 113 -31 30 -59 34 -73 9
-5 -10 -13 -17 -18 -17 -4 1 -18 -2 -31 -7 -35 -14 -42 -11 -42 15 0 29 26 52
55 48 28 -4 41 14 25 33 -15 18 -17 18 -59 -3z"/>
<path d="M2586 2575 c-96 -108 -98 -111 -81 -125 12 -10 20 -6 46 19 36 37 40
37 64 11 15 -17 16 -24 7 -46 -16 -33 -15 -69 1 -83 20 -16 27 -3 27 52 l0 50
32 -7 c24 -5 37 -1 55 16 23 21 33 78 13 78 -5 0 -31 23 -58 51 l-48 50 -58
-66z m104 -17 c33 -24 40 -65 14 -75 -20 -8 -83 22 -91 43 -4 11 2 23 18 35
30 23 24 23 59 -3z"/>
<path d="M5539 2566 c-29 -14 -69 -82 -69 -117 0 -26 34 -80 67 -104 28 -22
65 -18 104 10 48 36 59 53 59 96 0 28 -6 42 -22 53 -12 9 -19 16 -14 16 13 0
-43 50 -57 51 -7 0 -19 2 -28 4 -9 1 -27 -2 -40 -9z m90 -50 c15 -15 25 -42
28 -69 5 -43 4 -46 -26 -62 -39 -20 -62 -13 -97 27 -21 25 -25 39 -20 66 3 19
10 40 17 48 19 23 72 17 98 -10z"/>
<path d="M2794 2450 c-32 -13 -74 -92 -74 -139 0 -36 5 -44 46 -76 26 -19 55
-35 66 -35 30 0 107 77 114 116 9 51 -2 76 -49 112 -45 33 -66 37 -103 22z
m80 -41 c29 -14 34 -30 25 -82 -8 -49 -35 -77 -72 -77 -70 0 -93 85 -38 141
32 32 47 35 85 18z"/>
<path d="M5380 2423 c0 -10 16 -43 35 -73 19 -30 30 -56 26 -58 -5 -2 -44 16
-86 38 -70 37 -79 40 -93 26 -13 -13 -13 -18 -1 -34 8 -11 36 -52 62 -91 53
-77 62 -87 72 -71 4 6 -10 38 -29 72 -20 33 -34 63 -32 66 3 3 38 -9 79 -27
62 -27 107 -33 107 -15 0 12 -123 184 -131 184 -5 0 -9 -8 -9 -17z"/>
<path d="M3006 2339 c-13 -38 -45 -222 -40 -230 13 -22 52 -4 130 63 46 39 84
75 84 79 0 5 -8 12 -17 18 -15 8 -30 -2 -85 -56 -37 -37 -69 -65 -72 -62 -2 2
3 44 12 92 11 65 12 91 4 99 -8 8 -13 8 -16 -3z"/>
<path d="M5148 2293 c-38 -21 -68 -42 -68 -48 0 -5 21 -54 47 -107 l46 -97 46
26 c81 47 103 65 92 76 -6 6 -26 -1 -60 -22 -28 -17 -55 -31 -59 -31 -8 0 -45
70 -40 75 2 2 27 13 56 25 28 12 52 29 52 36 0 19 -10 18 -72 -11 -52 -24 -53
-24 -62 -5 -12 25 3 43 60 70 24 12 44 28 44 36 0 20 -7 18 -82 -23z"/>
<path d="M3165 2139 c-43 -89 -47 -102 -33 -115 13 -13 17 -10 33 33 10 26 31
75 46 107 26 55 29 76 10 76 -4 0 -29 -45 -56 -101z"/>
<path d="M4990 2210 c0 -5 11 -35 25 -66 14 -31 25 -73 25 -94 0 -30 -5 -39
-25 -48 -33 -15 -75 3 -75 32 0 39 -44 136 -62 136 -26 0 -26 -20 1 -90 36
-93 49 -107 98 -115 39 -6 46 -4 73 23 38 39 38 68 0 149 -16 34 -30 68 -30
73 0 6 -7 10 -15 10 -8 0 -15 -4 -15 -10z"/>
<path d="M3246 2104 c-37 -102 -40 -134 -13 -134 9 0 18 24 27 65 7 36 17 65
21 65 8 0 49 -125 49 -148 0 -17 40 -36 52 -24 5 5 17 40 27 78 10 38 24 82
30 98 9 23 9 31 -1 38 -23 14 -33 3 -47 -55 -7 -31 -17 -57 -22 -57 -8 0 -49
120 -49 146 0 7 -8 18 -18 23 -15 8 -22 -4 -56 -95z"/>
<path d="M4677 2103 c-21 -8 -36 -21 -34 -27 2 -6 17 -56 33 -111 15 -55 29
-101 29 -102 1 -2 26 4 56 13 87 26 118 63 94 112 -9 17 -21 32 -29 35 -8 3
-11 16 -8 36 3 19 -2 36 -11 46 -20 19 -81 19 -130 -2z m108 -23 c18 -29 -44
-80 -80 -66 -23 9 -20 59 3 63 8 1 16 4 20 7 9 10 50 7 57 -4z m31 -94 c29
-30 9 -59 -48 -70 -31 -6 -36 -4 -42 16 -11 41 -7 57 17 61 43 8 59 7 73 -7z"/>
<path d="M3524 2093 c-34 -17 -64 -68 -64 -109 0 -13 6 -40 14 -59 22 -53 112
-71 147 -29 19 23 -5 42 -26 20 -19 -19 -33 -20 -71 -6 -25 10 -26 13 -22 67
4 43 10 61 28 75 31 25 66 23 92 -7 27 -31 38 -32 38 -2 0 51 -79 80 -136 50z"/>
<path d="M3711 2008 c-24 -142 -25 -167 -7 -174 9 -4 19 -4 21 -2 9 8 35 219
30 229 -17 26 -34 5 -44 -53z"/>
<path d="M4375 2053 l-31 -4 16 -114 c8 -62 18 -116 22 -120 4 -4 41 0 82 10
53 11 76 21 76 31 0 10 -6 14 -17 10 -10 -2 -42 -8 -70 -11 l-53 -7 0 31 c0
25 5 32 28 36 70 15 87 22 87 35 0 12 -12 14 -56 13 -54 -3 -57 -2 -63 24 -8
31 5 43 50 43 16 0 39 7 50 15 17 13 14 14 -36 13 -30 -1 -69 -3 -85 -5z"/>
<path d="M3827 1943 c-26 -60 -47 -111 -47 -115 0 -5 8 -8 18 -8 10 0 22 12
29 29 10 28 12 29 49 20 22 -4 42 -9 45 -9 4 0 10 -11 13 -25 4 -16 13 -25 26
-25 25 0 25 7 1 89 -11 36 -25 85 -31 109 -9 33 -15 42 -33 42 -18 0 -30 -17
-70 -107z m86 10 c8 -21 13 -41 10 -45 -2 -5 -20 -8 -39 -8 -32 0 -35 2 -28
23 25 79 35 85 57 30z"/>
<path d="M4126 1928 c3 -57 10 -107 15 -112 9 -10 98 -10 129 -1 21 7 50 61
50 95 0 32 -16 76 -38 103 -12 13 -31 17 -89 17 l-74 0 7 -102z m133 58 c5 -6
11 -37 12 -68 3 -69 -12 -88 -70 -88 l-41 0 0 84 c0 53 4 86 11 88 20 7 78 -4
88 -16z"/>
<path d="M22349 2706 c-2 -3 -18 -6 -34 -9 l-30 -4 -3 -508 c-1 -367 1 -512 9
-521 14 -17 121 -19 150 -4 18 10 19 27 19 520 0 476 -1 509 -17 513 -35 10
-90 17 -94 13z"/>
<path d="M24405 2701 l-40 -6 -3 -516 -2 -517 22 -6 c29 -7 106 -7 136 0 l22
6 0 514 c0 403 -3 515 -12 519 -30 9 -86 12 -123 6z"/>
<path d="M15410 2680 c-6 -12 -10 -87 -10 -191 1 -94 0 -172 -2 -174 -2 -2
-28 13 -57 33 -47 33 -61 37 -125 40 -182 10 -289 -114 -303 -348 -11 -196 63
-352 186 -389 97 -28 194 -7 281 63 l45 36 3 -37 c4 -46 25 -62 80 -63 89 0
82 -44 82 516 0 322 -4 502 -10 515 -9 16 -22 19 -85 19 -64 0 -76 -3 -85 -20z
m-115 -450 c14 -5 43 -28 65 -50 l40 -41 1 -92 c2 -144 2 -146 -28 -182 -33
-39 -97 -75 -137 -75 -81 0 -127 69 -134 200 -5 106 9 160 55 211 29 32 42 39
74 39 21 0 49 -4 64 -10z"/>
<path d="M16887 2693 c-4 -3 -7 -91 -7 -195 0 -103 -3 -188 -7 -188 -3 0 -31
17 -61 37 -47 33 -63 38 -123 41 -169 10 -272 -93 -301 -299 -9 -63 -9 -101 0
-165 28 -189 104 -272 258 -282 82 -5 129 12 204 72 l45 36 3 -33 c5 -50 27
-67 87 -67 28 0 56 5 63 12 17 17 17 1009 0 1026 -13 13 -149 17 -161 5z
m-124 -462 c13 -5 40 -25 60 -44 20 -19 40 -31 43 -28 4 3 4 1 0 -6 -3 -6 -2
-14 4 -18 6 -4 10 -53 10 -118 l0 -113 -47 -46 c-57 -55 -81 -68 -123 -68 -82
0 -131 69 -138 196 -10 183 73 290 191 245z"/>
<path d="M23343 2693 c-10 -3 -13 -52 -13 -194 0 -104 -2 -189 -5 -189 -3 0
-28 16 -56 35 -58 40 -99 50 -178 42 -71 -6 -130 -35 -170 -84 -126 -152 -107
-513 31 -613 57 -41 101 -53 178 -48 70 5 154 43 195 88 27 30 35 25 35 -24 0
-50 8 -56 75 -56 82 0 75 -49 75 525 0 458 -2 514 -16 519 -18 7 -133 7 -151
-1z m-126 -464 c15 -5 47 -29 71 -52 l42 -41 0 -116 c0 -114 0 -116 -31 -153
-66 -80 -161 -98 -220 -41 -40 38 -53 85 -54 189 0 73 5 100 23 142 34 73 95
100 169 72z"/>
<path d="M11952 2668 c-45 -22 -51 -133 -8 -163 27 -20 125 -20 153 0 45 32
37 141 -13 164 -31 14 -101 13 -132 -1z"/>
<path d="M14662 2670 c-29 -12 -45 -55 -39 -104 7 -52 26 -68 86 -74 60 -5
107 11 115 41 24 91 -11 147 -91 146 -26 0 -58 -4 -71 -9z"/>
<path d="M19760 2673 c-38 -15 -50 -36 -50 -90 0 -74 20 -93 99 -93 83 0 106
20 106 94 0 71 -16 88 -87 92 -29 2 -60 1 -68 -3z"/>
<path d="M25272 2635 c-84 -19 -136 -45 -199 -100 -161 -141 -202 -490 -82
-701 53 -93 148 -162 257 -185 123 -25 311 9 369 67 19 19 23 34 23 88 0 36
-4 67 -9 70 -4 3 -41 -11 -81 -32 -67 -34 -79 -37 -159 -37 -93 0 -124 11
-175 62 -52 51 -78 123 -83 236 -9 173 36 292 131 352 43 26 58 30 120 30 51
-1 87 -8 129 -25 31 -13 57 -27 57 -30 0 -4 11 -12 25 -18 21 -10 26 -9 36 10
6 12 9 45 7 76 -4 47 -10 60 -36 82 -67 55 -218 81 -330 55z"/>
<path d="M10265 2631 l-40 -6 0 -365 0 -365 29 -62 c35 -76 95 -133 173 -164
78 -31 279 -34 361 -6 28 10 52 23 52 28 0 6 4 7 10 4 16 -10 105 87 128 137
37 84 42 139 42 462 0 263 -2 316 -15 326 -16 13 -153 16 -166 3 -4 -4 -9
-161 -11 -348 l-3 -340 -28 -48 c-38 -64 -90 -91 -177 -92 -83 0 -143 32 -180
97 l-25 43 -3 337 c-2 245 -6 339 -15 346 -17 13 -85 20 -132 13z"/>
<path d="M17509 2611 l-24 -19 0 -455 c0 -370 3 -457 14 -470 10 -12 30 -17
70 -17 100 0 94 -26 90 388 -2 199 -1 361 2 360 3 -2 49 -86 101 -188 157
-307 266 -505 294 -531 21 -20 38 -24 102 -27 67 -3 81 -1 105 18 l27 22 -2
466 -3 467 -58 3 c-33 2 -70 1 -83 -2 l-24 -6 -2 -348 -3 -347 -63 125 c-98
192 -245 464 -255 471 -5 3 -8 9 -8 13 3 18 -33 67 -59 81 -45 23 -191 21
-221 -4z"/>
<path d="M27243 2550 c-21 -9 -23 -16 -23 -90 l0 -80 -39 0 c-50 0 -71 -21
-71 -68 0 -73 7 -82 60 -82 l49 0 3 -222 c3 -207 5 -226 25 -268 31 -62 78
-90 161 -97 38 -3 85 0 110 6 50 14 65 40 60 110 -3 40 -6 46 -23 42 -11 -1
-42 -4 -68 -5 -78 -2 -85 19 -86 257 l-1 177 84 0 c93 0 96 2 96 78 0 64 -11
72 -100 72 l-80 0 0 84 c0 78 -1 84 -22 90 -33 8 -109 6 -135 -4z"/>
<path d="M11452 2370 c-24 -11 -62 -35 -86 -55 -24 -19 -46 -35 -49 -35 -3 0
-7 21 -9 48 l-3 47 -49 3 c-27 2 -60 1 -73 -3 l-23 -5 0 -354 0 -354 23 -6
c29 -8 121 -8 141 0 14 5 16 36 16 240 l0 233 50 49 c28 28 63 52 80 56 41 8
86 -3 105 -24 38 -42 44 -88 45 -321 0 -197 2 -228 16 -233 20 -8 112 -8 142
0 l23 7 -3 276 c-3 256 -5 279 -25 321 -27 58 -56 88 -107 111 -56 25 -157 25
-214 -1z"/>
<path d="M13063 2369 c-86 -34 -157 -117 -185 -218 -20 -72 -19 -237 1 -303
24 -76 71 -131 146 -168 68 -34 72 -35 195 -35 118 0 205 15 247 43 20 13 27
94 11 115 -13 18 -17 18 -51 3 -20 -8 -72 -20 -114 -27 -166 -25 -263 33 -263
157 l0 34 215 0 c202 0 216 1 235 20 47 47 8 240 -63 318 -12 13 -44 36 -72
50 -42 22 -66 26 -150 29 -82 3 -109 -1 -152 -18z m216 -126 c33 -25 61 -79
61 -120 l0 -33 -145 0 -145 0 0 30 c0 61 49 128 105 143 34 10 97 -1 124 -20z"/>
<path d="M13867 2361 c-20 -16 -46 -40 -58 -55 -29 -37 -39 -32 -39 18 0 50
-8 56 -75 56 -81 0 -75 30 -75 -365 0 -399 -8 -365 86 -365 98 0 94 -11 94
236 l0 216 32 44 c47 65 66 75 148 72 l70 -3 0 -50 c0 -92 53 -149 189 -206
112 -46 131 -62 131 -109 0 -42 -18 -67 -56 -76 -47 -12 -138 2 -198 29 -71
33 -79 27 -73 -51 4 -62 16 -74 104 -98 44 -12 86 -15 145 -12 162 9 258 93
258 225 -1 105 -51 159 -205 222 -44 18 -90 42 -102 54 -38 34 -29 88 18 112
40 21 88 18 167 -10 38 -14 72 -25 76 -25 4 0 6 28 4 63 -3 61 -3 62 -43 82
-32 16 -60 20 -145 20 -93 0 -111 -3 -155 -25 -31 -16 -64 -44 -85 -73 l-35
-47 -3 62 c-3 76 -16 88 -86 88 -40 0 -59 -7 -89 -29z"/>
<path d="M15860 2377 c-58 -17 -116 -45 -131 -63 -15 -18 -15 -102 0 -117 7
-7 29 -2 71 17 119 53 223 58 277 12 22 -19 27 -33 31 -83 l4 -60 -108 -6
c-226 -12 -324 -80 -324 -224 0 -126 73 -199 208 -210 81 -6 132 6 196 48 26
17 48 30 50 28 2 -2 6 -15 8 -29 4 -34 15 -40 70 -40 84 0 78 -20 78 274 0
342 -12 386 -117 436 -39 19 -69 24 -158 27 -70 2 -126 -2 -155 -10z m250
-471 c0 -62 -1 -66 -37 -96 -49 -39 -104 -55 -146 -41 -52 19 -67 39 -67 91 0
77 50 108 178 109 l72 1 0 -64z"/>
<path d="M18546 2366 c-90 -30 -116 -53 -116 -103 0 -22 6 -48 14 -58 13 -18
15 -18 73 8 153 69 278 56 299 -30 4 -15 7 -43 8 -62 l1 -36 -103 -6 c-120 -8
-182 -22 -239 -58 -150 -93 -106 -329 69 -371 100 -24 229 6 278 65 20 24 29
18 32 -22 l3 -38 59 -3 c32 -2 63 1 68 6 15 15 14 528 -1 581 -17 59 -77 116
-143 136 -79 23 -218 19 -302 -9z m284 -454 c0 -54 -3 -61 -37 -95 -108 -108
-273 -33 -208 93 9 17 17 30 18 30 1 0 20 7 42 15 22 8 73 14 113 15 l72 0 0
-58z"/>
<path d="M19306 2371 c-150 -53 -229 -223 -205 -441 21 -185 133 -290 310
-290 70 0 173 31 205 61 20 19 24 32 24 86 0 69 -15 89 -48 60 -64 -56 -170
-73 -230 -37 -63 38 -95 165 -73 285 27 146 152 194 282 108 40 -26 42 -27 55
-8 8 10 14 41 14 67 0 39 -5 54 -25 72 -57 53 -211 72 -309 37z"/>
<path d="M20233 2376 c-68 -22 -132 -64 -163 -108 -111 -152 -99 -434 22 -544
72 -65 117 -79 253 -79 102 0 127 3 167 22 70 32 131 94 164 166 24 53 29 78
32 169 7 187 -43 295 -166 355 -50 24 -70 28 -162 30 -68 2 -120 -2 -147 -11z
m208 -149 c19 -12 44 -42 57 -67 21 -40 23 -57 20 -150 -2 -81 -8 -114 -23
-145 -46 -91 -177 -113 -253 -42 -42 39 -55 84 -56 192 -1 92 1 104 28 152 34
61 70 82 142 83 37 0 61 -6 85 -23z"/>
<path d="M21094 2366 c-28 -13 -66 -37 -86 -55 -20 -17 -38 -31 -42 -31 -3 0
-6 20 -6 44 0 51 -8 56 -80 56 -83 0 -80 15 -80 -363 0 -184 4 -338 9 -346 12
-19 130 -28 160 -12 21 11 21 17 21 245 l0 234 50 45 c73 66 133 71 187 15
l28 -29 3 -247 c3 -284 -1 -272 95 -272 102 0 97 -12 97 238 0 230 -10 333
-36 385 -20 40 -69 85 -111 103 -52 22 -150 18 -209 -10z"/>
<path d="M21713 2375 c-68 -19 -129 -50 -137 -70 -11 -28 -7 -80 8 -100 13
-18 16 -18 83 12 120 54 241 53 277 -2 9 -13 19 -48 22 -78 l6 -54 -113 -6
c-148 -8 -212 -27 -265 -81 -49 -49 -69 -108 -59 -175 9 -59 19 -78 66 -122
42 -40 99 -59 176 -59 69 0 116 16 168 55 25 19 47 35 49 35 3 0 6 -17 8 -37
l3 -38 58 -3 c94 -5 90 -18 84 288 -3 169 -9 279 -17 305 -18 57 -75 110 -140
129 -66 20 -205 20 -277 1z m257 -465 c0 -55 -3 -62 -35 -94 -77 -77 -205 -66
-221 19 -16 89 42 132 184 134 l72 1 0 -60z"/>
<path d="M23817 2373 c-65 -22 -140 -91 -171 -157 -33 -69 -50 -181 -41 -265
15 -139 74 -234 175 -279 97 -44 313 -40 410 6 33 16 35 20 38 75 4 67 -7 76
-61 53 -20 -8 -69 -20 -111 -27 -161 -27 -266 39 -266 169 l0 22 219 0 c267 0
255 -6 249 119 -10 201 -117 302 -317 300 -42 0 -98 -7 -124 -16z m210 -131
c33 -23 48 -55 57 -114 l5 -38 -151 0 -150 0 7 38 c9 51 35 93 73 119 43 28
115 26 159 -5z"/>
<path d="M25880 2368 c-58 -23 -156 -110 -145 -128 3 -6 2 -10 -4 -10 -5 0
-18 -21 -28 -47 -14 -39 -18 -75 -17 -183 0 -159 15 -205 90 -276 81 -78 239
-105 408 -69 102 22 116 34 116 100 0 29 -4 56 -9 59 -4 3 -39 -4 -77 -15 -44
-14 -100 -22 -155 -23 -79 -1 -88 1 -122 27 -43 33 -64 69 -73 126 l-7 41 219
0 c266 1 258 -3 256 103 -3 142 -52 236 -149 284 -50 24 -72 28 -153 30 -78 2
-105 -1 -150 -19z m215 -122 c30 -20 52 -61 61 -115 l7 -41 -152 0 c-169 0
-164 -3 -137 73 17 47 42 75 81 94 37 16 106 11 140 -11z"/>
<path d="M26724 2370 c-23 -12 -59 -36 -82 -55 -22 -19 -43 -35 -46 -35 -3 0
-6 18 -6 40 0 29 -5 42 -19 50 -27 14 -114 13 -129 -2 -9 -9 -12 -101 -12
-355 0 -393 -8 -363 99 -363 93 0 91 -7 91 259 l0 228 42 41 c64 64 128 77
176 37 47 -39 52 -68 52 -314 0 -217 1 -231 19 -241 21 -11 103 -13 139 -4
l22 6 0 257 c0 275 -8 331 -51 390 -56 75 -204 106 -295 61z"/>
<path d="M27925 2372 c-16 -11 -47 -38 -67 -60 -21 -23 -40 -42 -43 -42 -3 0
-5 22 -5 49 0 55 -7 61 -75 61 -81 0 -75 29 -75 -359 0 -257 3 -350 12 -359
12 -12 106 -16 146 -6 22 6 22 7 22 229 l0 223 54 58 55 57 65 -6 65 -6 7 35
c9 48 -1 125 -17 135 -25 16 -112 10 -144 -9z"/>
<path d="M28313 2372 c-134 -48 -200 -134 -222 -292 -20 -144 20 -294 96 -360
68 -60 114 -74 248 -75 110 0 125 2 175 26 145 70 215 227 190 427 -17 131
-75 220 -173 263 -73 32 -238 38 -314 11z m247 -169 c32 -33 40 -51 50 -111
15 -93 0 -202 -35 -248 -64 -84 -195 -85 -258 -3 -48 64 -58 218 -21 309 31
74 79 102 168 97 54 -3 62 -7 96 -44z"/>
<path d="M11948 2373 c-17 -4 -18 -30 -18 -358 l0 -353 23 -6 c28 -7 106 -7
135 0 l22 6 0 349 c0 334 -1 349 -19 359 -19 10 -109 12 -143 3z"/>
<path d="M12171 2366 c-10 -12 10 -83 99 -348 60 -183 115 -340 120 -348 7
-12 32 -15 119 -15 66 0 114 4 121 11 13 13 230 659 230 684 0 24 -20 30 -95
30 -74 0 -79 -4 -105 -92 -10 -34 -30 -101 -45 -148 -14 -47 -40 -130 -56
-185 -17 -55 -34 -104 -38 -108 -5 -5 -20 31 -35 80 -15 48 -49 158 -76 243
-27 85 -51 165 -55 176 -7 26 -31 34 -111 34 -41 0 -65 -5 -73 -14z"/>
<path d="M14653 2373 c-18 -7 -19 -693 -1 -711 15 -15 122 -16 149 -2 18 10
19 25 19 356 l0 344 -26 10 c-26 10 -119 12 -141 3z"/>
<path d="M19738 2369 c-17 -9 -18 -37 -18 -354 0 -330 1 -345 19 -355 21 -11
103 -13 139 -4 l22 6 0 353 0 353 -22 6 c-36 9 -121 6 -140 -5z"/>
<path d="M10748 1213 c-16 -4 -18 -23 -18 -224 l0 -219 -60 44 c-118 87 -253
85 -356 -6 -84 -74 -119 -173 -119 -338 0 -187 52 -306 159 -363 33 -17 58
-22 126 -22 97 0 134 15 217 86 l48 42 5 -59 5 -59 50 0 50 0 3 549 c1 397 -1
553 -9 562 -11 13 -64 17 -101 7z m-163 -458 c20 -8 60 -37 90 -66 l55 -52 0
-156 0 -157 -52 -51 c-68 -65 -104 -83 -171 -83 -98 0 -156 63 -178 194 -20
120 5 265 55 324 51 60 128 78 201 47z"/>
<path d="M12114 1209 c-8 -14 -7 -1096 1 -1110 7 -11 85 -12 103 -1 10 7 12
126 10 563 l-3 554 -52 3 c-32 2 -54 -1 -59 -9z"/>
<path d="M19802 1211 c-11 -6 -14 -44 -13 -165 1 -87 -1 -184 -5 -216 l-6 -59
-50 40 c-28 21 -74 46 -105 55 -138 40 -289 -40 -342 -180 -65 -175 -38 -429
58 -525 58 -58 104 -76 196 -76 88 0 133 17 212 81 23 19 44 34 47 34 3 0 6
-20 6 -44 0 -53 16 -68 67 -64 l38 3 3 554 c2 437 0 556 -10 563 -17 10 -79
10 -96 -1z m-157 -460 c46 -22 123 -95 136 -129 5 -13 9 -81 9 -152 0 -125 -1
-129 -27 -162 -72 -86 -125 -118 -198 -118 -111 0 -166 64 -185 217 -32 251
100 421 265 344z"/>
<path d="M16218 1163 c-20 -5 -31 -36 -30 -82 2 -49 17 -61 78 -61 62 0 74 13
74 79 0 59 -47 84 -122 64z"/>
<path d="M17963 1160 c-29 -12 -42 -74 -22 -109 12 -22 23 -26 66 -29 63 -4
83 13 83 69 0 67 -56 97 -127 69z"/>
<path d="M26964 1159 c-27 -14 -38 -72 -21 -108 10 -22 20 -26 63 -29 37 -2
56 2 68 13 21 21 22 98 1 115 -20 17 -86 22 -111 9z"/>
<path d="M26353 1143 c-26 -5 -10 35 -230 -572 -90 -250 -161 -461 -159 -468
5 -13 80 -18 109 -7 9 3 36 65 63 140 l47 134 224 -2 225 -3 44 -123 c24 -68
48 -130 55 -138 16 -20 118 -19 125 1 3 8 -26 103 -66 212 -307 849 -292 812
-324 823 -29 10 -71 11 -113 3z m151 -405 c47 -136 86 -252 86 -258 0 -6 -64
-10 -185 -10 -141 0 -185 3 -185 13 0 6 18 64 41 127 23 63 61 174 85 245 60
177 54 163 64 145 4 -8 47 -126 94 -262z"/>
<path d="M13477 1125 c-15 -15 -17 -62 -17 -520 0 -559 -6 -515 68 -515 20 0
43 4 49 8 9 6 13 62 15 202 l3 195 125 6 c135 6 185 19 252 66 90 62 134 163
126 292 -6 92 -29 143 -93 199 -74 65 -113 74 -326 79 -164 5 -187 3 -202 -12z
m378 -114 c72 -33 105 -93 105 -189 0 -68 -17 -114 -57 -158 -40 -42 -81 -55
-205 -61 l-108 -6 0 217 0 216 113 0 c87 0 121 -4 152 -19z"/>
<path d="M21190 1131 c-13 -9 -15 -77 -15 -510 0 -396 3 -503 13 -513 17 -17
238 -23 361 -9 142 16 232 66 279 155 23 44 27 63 27 136 0 68 -5 93 -22 125
-28 52 -68 89 -127 118 l-48 23 40 26 c58 39 92 113 92 198 0 69 -15 130 -32
130 -5 0 -7 4 -4 8 9 14 -56 69 -109 94 -46 21 -67 23 -245 26 -118 2 -201 -1
-210 -7z m405 -129 c98 -69 79 -252 -31 -298 -22 -9 -73 -14 -149 -14 l-115 0
0 168 c0 93 3 172 8 177 4 4 61 5 127 1 110 -5 123 -8 160 -34z m32 -450 c68
-36 88 -73 88 -164 0 -62 -4 -82 -21 -104 -51 -69 -97 -83 -271 -84 l-123 0 0
191 0 191 143 -4 c123 -3 148 -6 184 -26z"/>
<path d="M11263 870 c-187 -37 -300 -243 -264 -481 22 -145 101 -252 213 -288
103 -33 303 -19 382 27 26 15 32 25 34 60 4 50 -5 53 -88 21 -67 -26 -198 -36
-258 -20 -47 13 -106 60 -128 102 -20 40 -35 152 -20 161 6 4 121 8 256 8 178
0 249 3 258 12 17 17 15 125 -4 188 -48 163 -199 246 -381 210z m193 -125 c42
-32 72 -92 76 -155 l3 -45 -205 0 -205 0 3 35 c5 49 36 115 69 146 46 43 81
55 155 51 55 -4 74 -10 104 -32z"/>
<path d="M12615 874 c-179 -42 -229 -77 -211 -149 8 -32 15 -31 79 4 69 40
170 57 236 41 69 -16 100 -52 111 -128 13 -94 8 -102 -59 -102 -84 0 -214 -18
-258 -36 -97 -40 -147 -110 -145 -204 1 -93 35 -149 117 -193 32 -17 57 -22
125 -22 91 0 133 15 198 70 38 32 42 31 42 -4 0 -49 9 -61 45 -61 69 0 65 -17
65 289 0 152 -5 296 -11 321 -24 108 -102 165 -239 174 -41 2 -84 3 -95 0z
m216 -456 c3 -113 -1 -132 -38 -170 -50 -51 -90 -68 -161 -68 -50 0 -66 4 -91
26 -38 32 -54 85 -41 134 21 76 92 108 243 109 l87 1 1 -32z"/>
<path d="M14501 868 c-20 -5 -56 -33 -92 -71 -59 -62 -59 -62 -60 -32 -1 17 0
42 1 57 2 33 -33 51 -80 42 l-30 -6 0 -379 0 -379 24 -6 c13 -3 38 -4 57 -2
l34 3 5 255 5 255 45 59 c25 33 62 68 84 79 35 18 45 19 94 9 64 -13 72 -8 72
48 0 47 -10 60 -56 70 -47 11 -59 11 -103 -2z"/>
<path d="M14953 870 c-120 -25 -212 -102 -254 -212 -21 -55 -24 -80 -24 -193
0 -112 4 -138 23 -187 29 -71 88 -132 160 -166 50 -24 69 -27 162 -27 95 0
111 3 168 29 77 36 142 104 174 184 19 49 22 76 23 192 0 128 -1 138 -29 198
-35 76 -102 139 -173 165 -59 21 -171 30 -230 17z m169 -112 c46 -14 103 -74
119 -127 17 -57 23 -208 10 -267 -26 -115 -106 -178 -226 -178 -80 0 -116 15
-163 69 -47 52 -65 128 -60 244 6 143 51 229 134 259 40 14 138 15 186 0z"/>
<path d="M16804 866 c-44 -14 -117 -61 -148 -95 -29 -32 -36 -26 -36 33 0 53
0 54 -32 59 -18 2 -43 1 -55 -4 l-23 -9 0 -374 c0 -415 -5 -386 69 -386 20 0
42 5 49 12 9 9 12 83 12 270 l0 259 46 49 c84 90 180 113 254 60 60 -43 64
-66 70 -370 l5 -275 48 -3 c83 -5 80 -15 74 293 -4 218 -8 281 -22 325 -40
127 -179 197 -311 156z"/>
<path d="M17537 870 c-154 -27 -249 -146 -266 -334 -19 -216 43 -367 177 -429
67 -30 216 -30 285 1 77 35 102 64 101 117 0 25 -4 48 -7 52 -4 3 -27 -8 -52
-26 -63 -45 -107 -61 -170 -61 -102 0 -169 56 -196 164 -6 26 -10 90 -7 148 4
131 35 204 102 243 73 43 182 30 261 -31 47 -35 65 -27 65 30 0 39 -4 48 -33
70 -64 49 -170 72 -260 56z"/>
<path d="M18425 866 c-72 -16 -133 -41 -157 -63 -19 -17 -25 -87 -9 -97 5 -3
44 11 87 30 67 31 89 37 154 38 123 1 169 -41 178 -165 l5 -69 -59 0 c-287 0
-428 -92 -411 -267 9 -93 58 -151 149 -178 103 -30 189 -15 279 50 27 19 51
35 54 35 3 0 5 -18 5 -40 0 -33 4 -41 24 -46 29 -7 59 -2 68 11 4 6 8 139 8
297 0 325 -4 346 -70 409 -21 19 -56 40 -77 47 -64 19 -164 23 -228 8z m255
-500 l0 -84 -41 -37 c-53 -47 -96 -65 -159 -65 -89 0 -140 45 -140 123 0 106
66 143 253 146 l87 1 0 -84z"/>
<path d="M20321 869 c-107 -21 -201 -101 -242 -206 -34 -87 -39 -257 -10 -351
21 -71 81 -162 106 -162 8 0 15 -4 15 -9 0 -5 24 -19 53 -32 74 -34 249 -34
353 -2 76 24 84 33 84 89 0 40 -6 41 -86 13 -83 -29 -207 -36 -271 -15 -81 27
-130 94 -140 193 -5 41 -2 57 8 64 8 5 123 9 257 8 160 -1 247 2 254 9 5 5 10
41 9 78 -2 173 -80 280 -228 319 -63 16 -95 17 -162 4z m152 -103 c51 -21 94
-77 107 -141 19 -90 28 -86 -197 -83 -224 3 -216 0 -192 87 15 52 91 136 130
144 51 9 121 6 152 -7z"/>
<path d="M23022 870 c-168 -36 -272 -189 -272 -403 0 -68 24 -174 51 -228 19
-39 82 -100 126 -122 73 -38 206 -47 323 -22 115 24 150 52 138 112 -5 23 -31
22 -123 -7 -54 -16 -88 -20 -150 -17 -141 7 -205 61 -227 192 -9 55 -9 68 2
75 8 5 124 9 259 10 174 0 249 4 259 13 18 15 10 141 -14 210 -21 63 -92 139
-152 165 -57 25 -159 35 -220 22z m164 -109 c63 -29 104 -101 104 -182 l0 -39
-199 0 c-129 0 -202 4 -206 10 -12 19 16 108 45 148 55 76 167 103 256 63z"/>
<path d="M23841 860 c-56 -20 -66 -27 -121 -77 -19 -18 -38 -33 -42 -33 -5 0
-8 24 -8 54 0 52 -1 54 -31 58 -17 3 -42 3 -55 0 l-24 -4 2 -382 3 -381 55 0
55 0 5 267 5 266 47 50 c87 92 183 115 256 63 59 -41 66 -77 72 -376 l5 -270
55 0 55 0 0 300 0 300 -28 53 c-33 63 -90 107 -158 121 -67 15 -85 14 -148 -9z"/>
<path d="M24590 866 c-79 -17 -131 -48 -184 -107 -64 -71 -91 -158 -90 -294 0
-160 43 -260 139 -327 93 -64 273 -76 378 -24 50 24 127 84 127 98 0 4 11 23
24 43 47 69 68 221 46 335 -30 156 -121 253 -265 279 -72 13 -104 13 -175 -3z
m177 -107 c46 -17 101 -78 120 -133 24 -70 24 -223 0 -291 -35 -100 -104 -149
-213 -149 -62 0 -78 3 -120 29 -86 54 -129 191 -105 337 18 111 57 170 131
202 41 18 146 21 187 5z"/>
<path d="M25323 870 c-181 -38 -252 -213 -137 -340 26 -28 64 -51 146 -87 133
-58 168 -86 168 -138 0 -88 -58 -130 -174 -123 -53 3 -87 12 -136 36 -68 33
-80 31 -80 -15 0 -39 21 -71 59 -87 137 -60 313 -41 397 42 38 38 56 86 55
153 0 115 -34 145 -269 244 -109 46 -135 152 -50 206 45 28 152 22 221 -12 41
-20 49 -21 57 -9 18 29 11 68 -16 89 -47 37 -165 57 -241 41z"/>
<path d="M27515 862 c-22 -11 -61 -42 -87 -70 -25 -29 -49 -52 -52 -52 -3 0
-6 26 -6 59 0 55 -1 59 -26 64 -15 2 -38 1 -53 -2 l-26 -7 -3 -374 c-2 -292 1
-375 10 -382 20 -12 93 -9 106 4 9 9 12 80 12 260 0 277 -7 246 82 342 46 50
48 51 100 49 29 -1 64 -3 78 -5 24 -3 25 0 28 49 3 43 0 53 -17 63 -40 21
-104 22 -146 2z"/>
<path d="M27958 865 c-72 -18 -122 -50 -171 -106 -55 -65 -79 -136 -85 -256
-10 -207 51 -329 195 -396 70 -32 248 -32 350 1 40 12 75 26 78 32 8 13 9 79
1 87 -3 4 -37 -3 -74 -16 -37 -13 -103 -25 -148 -28 -123 -8 -192 20 -239 100
-30 53 -45 154 -24 168 8 5 124 9 257 8 174 -1 247 2 255 10 17 17 11 143 -10
209 -22 70 -86 142 -151 170 -65 28 -162 35 -234 17z m199 -118 c48 -33 74
-85 76 -153 l2 -49 -204 -3 -204 -2 6 45 c11 80 53 141 122 179 48 26 152 18
202 -17z"/>
<path d="M28650 870 c-110 -23 -180 -104 -180 -208 0 -106 41 -153 190 -218
57 -24 119 -56 137 -70 29 -22 33 -30 33 -73 0 -89 -58 -127 -179 -119 -47 4
-84 14 -128 36 -68 35 -76 32 -72 -26 4 -52 23 -69 102 -94 145 -44 308 -4
368 91 55 85 48 179 -17 251 -26 29 -60 49 -141 82 -61 24 -121 56 -140 74
-28 27 -33 38 -33 78 0 36 6 52 24 71 44 43 155 47 238 7 24 -12 50 -22 56
-22 19 0 15 75 -6 93 -46 42 -167 64 -252 47z"/>
<path d="M15443 860 c-13 -5 -23 -11 -23 -13 0 -24 265 -735 277 -744 9 -7 42
-13 73 -13 31 0 63 6 72 13 9 6 57 127 107 267 49 140 106 299 126 353 19 54
35 106 35 116 0 37 -101 37 -121 0 -9 -18 -209 -598 -209 -608 0 -3 -4 -1 -9
5 -9 8 -38 90 -166 469 -26 77 -51 143 -54 146 -11 12 -86 18 -108 9z"/>
<path d="M16230 861 l-25 -7 -3 -374 c-2 -292 1 -375 10 -382 7 -4 30 -8 50
-8 73 0 68 -29 68 385 0 206 -3 376 -7 378 -18 10 -70 15 -93 8z"/>
<path d="M17980 861 l-25 -7 -3 -368 c-2 -264 1 -373 9 -382 14 -17 93 -18
105 -2 9 13 13 743 4 751 -11 9 -66 14 -90 8z"/>
<path d="M22020 861 l-25 -7 0 -289 c0 -281 1 -292 23 -340 46 -100 135 -152
245 -142 73 6 125 30 190 87 l47 42 0 -55 c0 -41 4 -56 16 -61 28 -11 81 -6
93 8 8 9 11 118 9 382 l-3 368 -31 7 c-17 3 -45 4 -63 1 l-31 -4 0 -268 0
-267 -53 -50 c-68 -65 -105 -83 -164 -83 -61 0 -104 26 -129 76 -17 35 -19 66
-22 309 -2 148 -6 273 -10 276 -12 12 -66 17 -92 10z"/>
<path d="M26980 861 l-25 -7 0 -379 0 -380 48 -3 c27 -2 55 2 63 9 12 9 14 73
14 380 0 202 -3 370 -7 372 -18 10 -70 15 -93 8z"/>
</g>
</svg>
