<svg width="171" height="171" viewBox="0 0 171 171" fill="none" xmlns="http://www.w3.org/2000/svg">
<g clip-path="url(#clip0_637_224)">
<path d="M85.4989 106.141L22.5558 120.666C14.5295 122.518 8.84375 129.665 8.84375 137.903V165.106C8.84375 168.363 11.4836 171.002 14.7403 171.002H156.258C159.514 171.002 162.154 168.363 162.154 165.106V137.903C162.154 129.665 156.468 122.518 148.442 120.666L85.4989 106.141Z" fill="#FFC855"/>
<path d="M109.086 94.3438H61.9141V126.775H109.086V94.3438Z" fill="#E6B47D"/>
<path d="M61.9141 94.3438V118.412C89.8145 122.062 109.086 97.2922 109.086 97.2922V94.3438H61.9141Z" fill="#D2A073"/>
<path d="M120.88 53.2206V35.3828H50.1211V78.9844C50.1211 84.8989 52.8498 90.4224 57.3923 93.7031L70.5008 103.17C73.1831 105.107 76.3349 106.141 79.5588 106.141H91.4427C94.6663 106.141 97.8181 105.108 100.5 103.17L113.609 93.7031C118.151 90.4224 120.88 84.8993 120.88 78.9844V73.5622C124.244 72.8792 126.776 69.9051 126.776 66.3398V60.4433C126.777 56.8774 124.244 53.9036 120.88 53.2206Z" fill="#F0C891"/>
<path d="M68.3139 49.1543C78.115 50.8677 95.6291 53.0727 120.878 53.0727V35.3828H50.1191V53.2206C46.7549 53.9036 44.2227 56.8777 44.2227 60.443V66.3395C44.2227 69.9052 46.7549 72.8793 50.1191 73.562V78.9842C50.1191 84.8987 52.8478 90.4222 57.3903 93.7029L70.4988 103.17C73.1811 105.107 76.3329 106.141 79.5568 106.141H82.5503C78.2466 106.141 70.8014 95.1467 67.0935 89.2075C65.629 86.8612 64.8605 84.17 64.8605 81.4043V52.0573C64.8605 50.2211 66.5051 48.8381 68.3139 49.1543Z" fill="#E6B47D"/>
<path d="M82.5535 0C61.9156 0 58.9672 8.84491 58.9672 8.84491C47.1742 8.84491 41.2773 11.7933 41.2773 23.5863C41.2773 31.5098 44.2258 56.0172 44.2258 56.0172L50.1223 58.9656L55.618 38.3117C55.618 38.3117 82.5535 47.1723 117.933 47.1723L120.881 58.9653L126.778 56.0169C126.778 56.0169 129.726 38.3271 129.726 26.5341C129.726 8.84491 106.14 0 82.5535 0Z" fill="#8C6450"/>
<path d="M58.9671 8.84375C47.1742 8.84375 41.2773 11.7922 41.2773 23.5852C41.2773 31.5086 44.2258 56.0161 44.2258 56.0161L50.1222 58.9645L55.6179 38.3105C55.6179 38.3105 82.5534 47.1712 117.933 47.1712C76.6569 38.3266 58.9671 17.6887 58.9671 8.84375Z" fill="#7D5541"/>
<path d="M64.8619 64.8608C64.554 64.8608 64.2387 64.8118 63.9291 64.7082L46.2392 58.8117C44.6946 58.2964 43.8596 56.6265 44.3749 55.0818C44.8903 53.5384 46.5575 52.6948 48.1049 53.2175L65.7947 59.114C67.3394 59.6293 68.1743 61.2992 67.659 62.8439C67.2472 64.0793 66.097 64.8608 64.8619 64.8608Z" fill="#464655"/>
<path d="M106.137 64.8608C104.902 64.8608 103.751 64.0793 103.34 62.8439C102.824 61.2992 103.659 59.6293 105.204 59.114L122.894 53.2175C124.441 52.6948 126.109 53.5384 126.624 55.0818C127.139 56.6265 126.304 58.2964 124.76 58.8117L107.07 64.7082C106.76 64.8121 106.445 64.8608 106.137 64.8608Z" fill="#464655"/>
<path d="M85.5009 93.2073C81.9049 93.2073 78.4254 92.4906 75.4379 91.1373C73.9554 90.4637 73.2984 88.7159 73.9711 87.233C74.6434 85.7475 76.3898 85.0909 77.874 85.7648C82.331 87.7858 88.671 87.7858 93.1281 85.7648C94.615 85.0912 96.36 85.7505 97.031 87.233C97.7033 88.7156 97.0467 90.4637 95.5641 91.1373C92.575 92.4906 89.0955 93.2073 85.5009 93.2073Z" fill="#D2A073"/>
<path d="M76.6555 70.7621H64.8625C63.2343 70.7621 61.9141 69.4418 61.9141 67.8137V61.9172C61.9141 60.289 63.2343 58.9688 64.8625 58.9688H76.6555C78.2836 58.9688 79.6039 60.289 79.6039 61.9172V67.8137C79.6036 69.4422 78.2836 70.7621 76.6555 70.7621Z" fill="white"/>
<path d="M70.757 67.814C69.1355 67.814 67.8086 66.4874 67.8086 64.8656V61.9172C67.8086 60.2957 69.1352 58.9688 70.757 58.9688C72.3785 58.9688 73.7054 60.2953 73.7054 61.9172V64.8656C73.7051 66.4874 72.3785 67.814 70.757 67.814Z" fill="#5A4137"/>
<path d="M94.3429 70.7621H106.136C107.764 70.7621 109.084 69.4418 109.084 67.8137V61.9172C109.084 60.289 107.764 58.9688 106.136 58.9688H94.3429C92.7148 58.9688 91.3945 60.289 91.3945 61.9172V67.8137C91.3949 69.4422 92.7148 70.7621 94.3429 70.7621Z" fill="white"/>
<path d="M100.241 67.814C98.6199 67.814 97.293 66.4874 97.293 64.8656V61.9172C97.293 60.2957 98.6196 58.9688 100.241 58.9688C101.863 58.9688 103.19 60.2953 103.19 61.9172V64.8656C103.19 66.4874 101.863 67.814 100.241 67.814Z" fill="#5A4137"/>
<path d="M91.3983 67.8089C89.7702 67.8089 88.4499 66.4887 88.4499 64.8605C88.4499 63.2354 87.127 61.9121 85.5015 61.9121C83.8763 61.9121 82.5531 63.235 82.5531 64.8605C82.5531 66.4887 81.2328 67.8089 79.6047 67.8089C77.9765 67.8089 76.6562 66.4887 76.6562 64.8605C76.6562 59.9834 80.624 56.0156 85.5012 56.0156C90.3783 56.0156 94.3461 59.9834 94.3461 64.8605C94.3464 66.489 93.0265 67.8089 91.3983 67.8089Z" fill="#464655"/>
<path d="M79.6031 67.8089C77.9749 67.8089 76.6547 66.4887 76.6547 64.8605V61.9121H64.8617V64.8605C64.8617 66.4887 63.5414 67.8089 61.9133 67.8089C60.2851 67.8089 58.9648 66.4887 58.9648 64.8605V61.9121C58.9648 58.6601 61.6093 56.0156 64.8613 56.0156H76.6543C79.9063 56.0156 82.5508 58.6601 82.5508 61.9121V64.8605C82.5515 66.489 81.2312 67.8089 79.6031 67.8089Z" fill="#707487"/>
<path d="M109.087 67.8089C107.459 67.8089 106.139 66.4887 106.139 64.8605V61.9121H94.346V64.8605C94.346 66.4887 93.0258 67.8089 91.3976 67.8089C89.7695 67.8089 88.4492 66.4887 88.4492 64.8605V61.9121C88.4492 58.6601 91.0937 56.0156 94.3457 56.0156H106.139C109.391 56.0156 112.035 58.6601 112.035 61.9121V64.8605C112.036 66.489 110.716 67.8089 109.087 67.8089Z" fill="#707487"/>
<path d="M31.9237 143.961L13.7366 125.773C10.7057 128.974 8.84375 133.243 8.84375 137.901V165.104C8.84375 168.361 11.4836 171.001 14.7402 171.001H35.3781V152.3C35.3778 149.172 34.1357 146.173 31.9237 143.961Z" fill="#FFAF4B"/>
<path d="M139.075 143.961L157.262 125.773C160.293 128.974 162.155 133.243 162.155 137.901V165.104C162.155 168.361 159.516 171.001 156.259 171.001H135.621V152.3C135.62 149.172 136.863 146.173 139.075 143.961Z" fill="#FFAF4B"/>
<path d="M85.4981 159.204C82.2414 159.204 79.6016 156.564 79.6016 153.308V126.773H91.3945V153.308C91.3949 156.564 88.7551 159.204 85.4981 159.204Z" fill="#D5DCEC"/>
<path d="M61.9123 103.188L85.4985 126.774C85.4985 126.774 75.8771 129.179 67.4975 138.335C66.2621 139.685 64.0421 139.275 63.4162 137.555C60.9043 130.652 55.8124 116.639 53.8569 111.257C53.393 109.979 53.8633 108.554 54.9938 107.8L61.9123 103.188Z" fill="#E4EAF6"/>
<path d="M109.086 103.188L85.5 126.774C85.5 126.774 95.1214 129.179 103.501 138.335C104.737 139.685 106.957 139.275 107.582 137.555C110.094 130.652 115.186 116.639 117.142 111.257C117.606 109.979 117.136 108.554 116.005 107.8L109.086 103.188Z" fill="#E4EAF6"/>
<path d="M85.4992 153.311C87.1276 153.311 88.4476 151.991 88.4476 150.362C88.4476 148.734 87.1276 147.414 85.4992 147.414C83.8708 147.414 82.5508 148.734 82.5508 150.362C82.5508 151.991 83.8708 153.311 85.4992 153.311Z" fill="#FFAF4B"/>
<path d="M85.4992 141.514C87.1276 141.514 88.4476 140.194 88.4476 138.566C88.4476 136.937 87.1276 135.617 85.4992 135.617C83.8708 135.617 82.5508 136.937 82.5508 138.566C82.5508 140.194 83.8708 141.514 85.4992 141.514Z" fill="#FFAF4B"/>
</g>
<defs>
<clipPath id="clip0_637_224">
<rect width="171" height="171" fill="white"/>
</clipPath>
</defs>
</svg>
