<svg width="53" height="53" viewBox="0 0 53 53" fill="none" xmlns="http://www.w3.org/2000/svg">
<path d="M12.8366 22.8517C13.0609 22.8517 13.311 22.8862 13.5871 22.9553C13.8631 23.0243 14.1392 23.1192 14.4152 23.2399C14.6913 23.3607 14.9673 23.4728 15.2433 23.5764C15.5194 23.6799 15.7695 23.7834 15.9938 23.8869L15.5798 23.9387C15.4417 23.9559 15.2951 23.9645 15.1398 23.9645C14.8465 23.9645 14.5791 23.9214 14.3376 23.8351C14.096 23.7489 13.8718 23.6367 13.6647 23.4987C13.4577 23.3607 13.2507 23.2572 13.0436 23.1882C12.8366 23.1192 12.6468 23.0674 12.4743 23.0329C12.3018 23.0329 12.1465 23.0674 12.0085 23.1364C11.8705 23.2054 11.7324 23.2831 11.5944 23.3693C11.5944 23.3003 11.534 23.2658 11.4133 23.2658C11.534 23.145 11.7583 23.0501 12.0861 22.9811C12.4139 22.9121 12.6641 22.869 12.8366 22.8517ZM16.3303 24.0163C17.0376 24.0163 17.6846 24.1371 18.2712 24.3786C18.0296 24.4649 17.7881 24.5339 17.5466 24.5856C17.305 24.6374 17.0549 24.6719 16.7961 24.6891C16.451 24.6891 16.1405 24.6546 15.8644 24.5856C15.9507 24.4476 16.037 24.3613 16.1232 24.3268C16.2095 24.2923 16.2785 24.1888 16.3303 24.0163ZM26.5007 0.000663562C28.9333 0.000663562 31.271 0.319837 33.5139 0.958183C35.7567 1.59653 37.8615 2.48504 39.8283 3.62371C41.7951 4.76238 43.5894 6.15122 45.2111 7.79022C46.8329 9.42921 48.2131 11.2149 49.3517 13.1472C50.4904 15.0794 51.3876 17.1843 52.0432 19.4616C52.6987 21.7389 53.0179 24.0853 53.0007 26.5007C53.0007 28.9333 52.6815 31.271 52.0432 33.5139C51.4048 35.7567 50.5163 37.8615 49.3776 39.8283C48.239 41.7951 46.8501 43.5894 45.2111 45.2111C43.5721 46.8329 41.7865 48.2131 39.8542 49.3517C37.9219 50.4904 35.8171 51.3876 33.5397 52.0432C31.2624 52.6987 28.916 53.0179 26.5007 53.0007C24.0681 53.0007 21.7303 52.6815 19.4875 52.0432C17.2446 51.4048 15.1398 50.5163 13.173 49.3776C11.2062 48.239 9.41196 46.8501 7.79022 45.2111C6.16847 43.5721 4.78826 41.7865 3.64959 39.8542C2.51092 37.9219 1.61378 35.8171 0.958183 33.5397C0.302584 31.2624 -0.016589 28.916 0.000663562 26.5007C0.000663562 24.0681 0.319837 21.7303 0.958183 19.4875C1.59653 17.2446 2.48504 15.1398 3.62371 13.173C4.76238 11.2062 6.15122 9.41196 7.79022 7.79022C9.42921 6.16847 11.2149 4.78826 13.1472 3.64959C15.0794 2.51092 17.1843 1.61378 19.4616 0.958183C21.7389 0.302584 24.0853 -0.016589 26.5007 0.000663562ZM46.2204 14.3635C45.9789 13.9839 45.7373 13.6216 45.4958 13.2765C45.2542 12.9315 45.0041 12.5778 44.7453 12.2155C44.7108 12.3708 44.6677 12.4829 44.6159 12.5519C44.5641 12.6209 44.5296 12.7762 44.5124 13.0178C44.5124 13.173 44.5728 13.3197 44.6935 13.4577C44.8143 13.5957 44.9696 13.7337 45.1594 13.8718C45.3491 14.0098 45.5389 14.1133 45.7287 14.1823C45.9185 14.2513 46.0824 14.3117 46.2204 14.3635ZM44.4348 11.8273C44.4348 11.9653 44.4089 12.0602 44.3571 12.112H44.5124C44.5814 12.112 44.6332 12.1206 44.6677 12.1379L44.4348 11.8273ZM26.5007 49.6882C28.4675 49.6882 30.3911 49.438 32.2717 48.9377C34.1522 48.4374 35.9292 47.73 37.6027 46.8156C39.2762 45.9012 40.829 44.7798 42.2609 43.4514C43.6929 42.1229 44.9437 40.6392 46.0134 39.0002C45.7891 38.4826 45.5734 37.9564 45.3664 37.4216C45.1594 36.8867 45.0558 36.3347 45.0558 35.7653C45.0558 35.1442 45.0817 34.6439 45.1335 34.2643C45.1852 33.8848 45.2456 33.5484 45.3146 33.2551C45.3836 32.9618 45.4182 32.7116 45.4182 32.5046C45.4182 32.2975 45.3923 32.0301 45.3405 31.7023C45.2888 31.3745 45.1421 31.0208 44.9006 30.6413C44.659 30.2617 44.3399 29.7269 43.9431 29.0368C43.9603 28.916 43.9862 28.7521 44.0207 28.5451C44.0552 28.3381 44.0897 28.1224 44.1242 27.8981C44.1587 27.6738 44.1673 27.4668 44.1501 27.277C44.1328 27.0873 44.0897 26.9234 44.0207 26.7853C43.5721 26.7336 43.1063 26.6387 42.6232 26.5007C42.1402 26.3626 41.7088 26.1556 41.3293 25.8796L41.4846 25.7502C41.2603 25.8019 41.036 25.8709 40.8117 25.9572C40.5874 26.0435 40.3718 26.1384 40.1647 26.2419C39.9577 26.3454 39.7334 26.4144 39.4919 26.4489C39.2503 26.4834 39.0174 26.5179 38.7931 26.5524L38.3791 26.5007L38.4567 26.3195C38.2152 26.3885 37.9564 26.4748 37.6804 26.5783C37.4043 26.6818 37.1369 26.7336 36.8781 26.7336C36.7056 26.7336 36.4554 26.6732 36.1276 26.5524C35.7998 26.4317 35.472 26.285 35.1442 26.1125C34.8164 25.94 34.5231 25.7502 34.2643 25.5431C34.0056 25.3361 33.8762 25.1377 33.8762 24.9479L33.9279 24.8703C33.8417 24.7668 33.7295 24.6719 33.5915 24.5856C33.4535 24.4994 33.3241 24.4131 33.2033 24.3268C33.0825 24.2406 32.9704 24.1457 32.8669 24.0422C32.7634 23.9387 32.7202 23.8179 32.7375 23.6799L33.0222 23.447L32.4269 23.3693L32.2199 22.593C32.2544 22.6792 32.332 22.7137 32.4528 22.6965C32.5736 22.6792 32.6685 22.6447 32.7375 22.593L31.8058 22.1013L32.4528 20.445C32.2113 19.5479 32.1509 18.8578 32.2717 18.3747C32.3924 17.8916 32.6253 17.4948 32.9704 17.1843C33.3154 16.8737 33.695 16.5632 34.1091 16.2526C34.5231 15.9421 34.9458 15.5194 35.3771 14.9846L35.2995 14.674L37.0075 12.6037L37.3957 12.5519C37.8788 12.5519 38.4222 12.5347 39.0261 12.5002C39.6299 12.4657 40.2424 12.4053 40.8635 12.319C41.4846 12.2328 42.097 12.1465 42.7009 12.0602C43.3047 11.974 43.8568 11.8618 44.3571 11.7238C43.805 11.0682 43.2271 10.4471 42.6232 9.86053C42.0194 9.27394 41.3724 8.71323 40.6823 8.1784C40.4925 8.24741 40.2596 8.3423 39.9836 8.46307C39.7075 8.58384 39.4315 8.73911 39.1555 8.92889C38.8794 9.11867 38.6638 9.3257 38.5085 9.54998C38.3532 9.77427 38.2583 10.0072 38.2238 10.2487L38.3791 10.7404C38.0685 11.2407 37.7235 11.5513 37.3439 11.6721C36.9644 11.7928 36.5762 11.8618 36.1794 11.8791C35.7826 11.8963 35.3685 11.8963 34.9372 11.8791C34.5059 11.8618 34.0918 11.9395 33.695 12.112L33.2809 11.2321L33.6691 9.73113L33.2292 9.08416L37.7062 7.6867C37.5165 7.20363 37.2059 6.84132 36.7746 6.59979C36.3433 6.35825 35.8688 6.23748 35.3513 6.23748V5.97869L36.8005 5.74578C35.196 4.95216 33.5311 4.34832 31.8058 3.93426C30.0806 3.5202 28.3122 3.31316 26.5007 3.31316C24.9997 3.31316 23.516 3.45981 22.0495 3.75311C20.583 4.0464 19.1683 4.46909 17.8054 5.02117C16.4424 5.57326 15.1226 6.26336 13.8459 7.09148C12.5692 7.91961 11.4046 8.85125 10.3522 9.88641C10.8008 9.88641 11.1458 9.99855 11.3874 10.2228C11.6289 10.4471 11.8532 10.6973 12.0602 10.9733C12.2673 11.2494 12.4829 11.4995 12.7072 11.7238C12.9315 11.9481 13.2334 12.0689 13.613 12.0861L14.027 11.7756L13.9753 11.2062L14.8293 9.98992L14.1564 8.07488C14.2427 8.02313 14.3721 7.93686 14.5446 7.81609C14.7171 7.69533 14.8638 7.63494 14.9846 7.63494C15.5021 7.63494 15.8989 7.66082 16.175 7.71258C16.451 7.76434 16.6926 7.85923 16.8996 7.99725C17.1066 8.13527 17.2878 8.33367 17.443 8.59246C17.5983 8.85125 17.8399 9.17905 18.1677 9.57586L19.0993 8.85125C19.2718 8.92026 19.5479 9.0324 19.9274 9.18768C20.307 9.34295 20.6952 9.53273 21.092 9.75701C21.4888 9.9813 21.8252 10.2142 22.1013 10.4557C22.3773 10.6973 22.5239 10.9216 22.5412 11.1286C22.5412 11.3874 22.4463 11.5944 22.2565 11.7497C22.0667 11.905 21.8166 12.0344 21.506 12.1379C21.1955 12.2414 20.8763 12.319 20.5485 12.3708C20.2207 12.4225 19.8929 12.4916 19.5651 12.5778C19.2373 12.6641 18.9872 12.7503 18.8146 12.8366C18.6421 12.9229 18.5386 13.0695 18.5041 13.2765L20.0051 13.7682C19.66 14.0615 19.2891 14.329 18.8923 14.5705C18.4955 14.812 18.0814 15.0363 17.6501 15.2433L17.7536 15.6833L15.3727 16.6149V17.3395L15.1916 17.4172L15.321 16.5114L15.2175 16.4855C15.0967 16.4855 15.0277 16.5114 15.0104 16.5632C14.9932 16.6149 14.9846 16.6753 14.9846 16.7443C14.9846 16.8133 15.0018 16.8823 15.0363 16.9513C15.0708 17.0204 15.0794 17.0721 15.0622 17.1066L14.7258 16.9255L14.7775 17.029C14.7775 17.0807 14.8034 17.1584 14.8552 17.2619C14.9069 17.3654 14.9759 17.4603 15.0622 17.5466C15.1485 17.6328 15.2175 17.7191 15.2692 17.8054C15.321 17.8916 15.3555 17.9347 15.3727 17.9347C15.3727 17.9865 15.3382 18.0383 15.2692 18.09C15.2002 18.1418 15.1139 18.1763 15.0104 18.1935C14.9069 18.2108 14.8379 18.2367 14.8034 18.2712C14.7689 18.3057 14.7689 18.3143 14.8034 18.2971C15.0449 18.2971 15.0967 18.3143 14.9587 18.3488C14.8207 18.3833 14.605 18.4696 14.3117 18.6076C14.0184 18.7456 13.751 18.944 13.5095 19.2028C13.2679 19.4616 13.1299 19.8412 13.0954 20.3415C13.0954 20.6348 13.104 20.9194 13.1213 21.1955C13.1385 21.4715 13.1299 21.7562 13.0954 22.0495C12.8539 21.3939 12.4916 20.8936 12.0085 20.5485C11.5254 20.2035 10.9388 20.0309 10.2487 20.0309L9.13592 20.1345L9.67938 20.4968C9.38608 20.4623 9.08416 20.4277 8.77361 20.3932C8.46307 20.3587 8.14389 20.3501 7.81609 20.3674C7.48829 20.3846 7.195 20.4536 6.93621 20.5744C6.67742 20.6952 6.41863 20.8763 6.15984 21.1179L6.00457 22.2824C6.00457 22.8345 6.12534 23.2831 6.36688 23.6281C6.60841 23.9732 7.0311 24.1543 7.63494 24.1716C8.15252 24.1716 8.66147 24.0939 9.1618 23.9387C9.66212 23.7834 10.1538 23.6022 10.6369 23.3952C10.4816 23.7748 10.3091 24.1371 10.1193 24.4821C9.92954 24.8272 9.79152 25.2067 9.70525 25.6208L10.0417 25.7761C10.4557 25.5 10.8353 25.4569 11.1804 25.6467C11.5254 25.8364 11.8618 26.1125 12.1896 26.4748C12.5174 26.8371 12.8539 27.208 13.1989 27.5876C13.544 27.9671 13.9149 28.2432 14.3117 28.4157L13.4318 28.8815L11.3615 27.717C11.3788 27.7515 11.396 27.8291 11.4133 27.9499C11.4305 28.0707 11.4219 28.0965 11.3874 28.0275L10.4557 26.4489C9.90366 26.4317 9.31707 26.3454 8.69598 26.1901C8.07488 26.0348 7.44516 25.8278 6.80682 25.569C6.16847 25.3102 5.57326 25.0256 5.02117 24.715C4.46909 24.4045 3.96014 24.0767 3.49432 23.7316L3.31316 26.5007C3.31316 28.6055 3.59783 30.6585 4.16717 32.6598C4.7365 34.6612 5.53875 36.5417 6.57391 38.3014C7.60906 40.0612 8.87713 41.6657 10.3781 43.1149C11.8791 44.5641 13.544 45.7977 15.3727 46.8156C15.2865 46.4533 15.2778 46.091 15.3469 45.7287C15.4159 45.3664 15.5021 45.0041 15.6056 44.6418C15.7092 44.2795 15.8213 43.9172 15.9421 43.5549C16.0628 43.1926 16.1232 42.8216 16.1232 42.4421C16.1232 41.89 16.037 41.312 15.8644 40.7082C15.6919 40.1043 15.4849 39.4919 15.2433 38.8708C15.0018 38.2497 14.7344 37.6372 14.4411 37.0334C14.1478 36.4295 13.9149 35.8602 13.7424 35.3254C13.5698 34.7905 13.4318 34.2902 13.3283 33.8244C13.2248 33.3586 13.2765 32.9531 13.4836 32.6081L13.0954 32.4269C13.1989 32.1854 13.3369 31.9525 13.5095 31.7282C13.682 31.5039 13.8631 31.2796 14.0529 31.0554C14.2427 30.8311 14.3893 30.5895 14.4929 30.3307C14.5964 30.072 14.6568 29.8132 14.674 29.5544C14.674 29.3819 14.6395 29.2007 14.5705 29.0109C14.5015 28.8211 14.4411 28.64 14.3893 28.4675L14.9328 28.5969C15.2261 27.924 15.6229 27.4668 16.1232 27.2253C16.6236 26.9837 17.2533 26.8543 18.0124 26.8371C18.0986 26.8371 18.2798 26.8716 18.5558 26.9406C18.8319 27.0096 19.1252 27.1045 19.4357 27.2253C19.7463 27.346 20.0396 27.4409 20.3156 27.5099C20.5917 27.579 20.7987 27.648 20.9367 27.717C20.9367 27.8377 21.0057 27.9154 21.1437 27.9499C21.2818 27.9844 21.3594 28.0448 21.3766 28.131L21.3249 28.3381C21.3766 28.3553 21.4974 28.4157 21.6872 28.5192C21.877 28.6227 22.084 28.7521 22.3083 28.9074C22.5326 29.0627 22.731 29.2007 22.9035 29.3215C23.076 29.4422 23.1968 29.5371 23.2658 29.6061C23.5764 29.6061 23.999 29.7097 24.5339 29.9167C25.0687 30.1237 25.6553 30.3825 26.2936 30.6931C26.932 31.0036 27.5617 31.3745 28.1828 31.8058C28.8039 32.2372 29.3905 32.6685 29.9426 33.0998C30.4946 33.5311 30.9173 33.9624 31.2106 34.3937C31.5039 34.8251 31.6764 35.2046 31.7282 35.5324L30.8483 36.464C30.9173 37.3439 30.857 38.0168 30.6672 38.4826C30.4774 38.9484 30.1841 39.3366 29.7873 39.6472C29.3905 39.9577 28.9333 40.2165 28.4157 40.4235C27.8981 40.6306 27.3374 40.9238 26.7336 41.3034C26.7336 41.6485 26.6473 42.0194 26.4748 42.4162C26.3023 42.813 26.0866 43.1926 25.8278 43.5549C25.569 43.9172 25.2585 44.2191 24.8962 44.4606C24.5339 44.7022 24.1716 44.8229 23.8093 44.8229L22.7223 43.9948C22.7569 44.0293 22.7569 44.0897 22.7223 44.176C22.6878 44.2622 22.6447 44.2795 22.593 44.2277C22.7655 44.5555 22.8086 44.9351 22.7223 45.3664C22.6361 45.7977 22.4894 46.2376 22.2824 46.6862C22.0754 47.1348 21.8425 47.5575 21.5837 47.9543C21.3249 48.3511 21.092 48.6875 20.8849 48.9636C21.8166 49.2051 22.7482 49.3862 23.6799 49.507C24.6115 49.6278 25.5518 49.6882 26.5007 49.6882Z" fill="white"/>
</svg>
